<?xml version="1.0" standalone="no"?>
<!DOCTYPE svg PUBLIC "-//W3C//DTD SVG 1.1//EN" "http://www.w3.org/Graphics/SVG/1.1/DTD/svg11.dtd" >
<!--
2013-9-30: Created.
-->
<svg>
<metadata>
Created by iconfont
</metadata>
<defs>

<font id="iconfont" horiz-adv-x="1024" >
  <font-face
    font-family="iconfont"
    font-weight="500"
    font-stretch="normal"
    units-per-em="1024"
    ascent="896"
    descent="-128"
  />
    <missing-glyph />
    
    <glyph glyph-name="xiaotubiao-" unicode="&#59198;" d="M265.611466 391.417978a27.518305 27.518305 0 0 1 38.366101 7.417978 27.598068 27.598068 0 0 1-7.417978 38.286337 220.465493 220.465493 0 0 0-97.311108 182.976788C199.248481 741.737965 298.234616 840.7241 419.873501 840.7241a220.944072 220.944072 0 0 0 214.563016-272.072285 27.598068 27.598068 0 1 1 53.760398-12.921639A276.140209 276.140209 0 0 1 419.873501 896 276.140209 276.140209 0 0 1 144.052345 620.099081c0-91.727683 45.465026-177.3136 121.559121-228.681103zM892.310952 153.484343V355.843589a79.603677 79.603677 0 0 1-79.603677 79.603677 77.290544 77.290544 0 0 1-38.84468-11.406138V264.275432c0-6.062003-4.945319-11.007322-11.087085-11.007322s-10.927559 4.945319-10.927559 11.007322V442.546191a79.603677 79.603677 0 0 1-65.884405 35.175573 77.529833 77.529833 0 0 1-37.568469-10.608506V264.275432a11.007322 11.007322 0 0 0-22.094407 0V488.649322a79.523913 79.523913 0 0 1-67.080854 37.169653 77.848886 77.848886 0 0 1-33.500545-8.295373V264.275432a11.166848 11.166848 0 0 0-22.174171 0V651.047204a81.757283 81.757283 0 0 1-70.829724 41.078049c-45.544789 0-82.475152-36.930363-82.475152-82.475152v-344.018694s-51.925845 40.519707-76.732201 65.405826C248.621904 356.003116 199.009191 359.113881 158.409721 318.51441s-31.985044-90.451472 0-122.436516 221.023835-222.459573 258.672067-260.107805 91.009815-63.970089 196.137717-63.970089c105.207665 0 162.796697 16.351457 225.969154 79.603677 63.25222 63.25222 53.122293 130.811653 53.122293 201.880666z"  horiz-adv-x="1024" />

    
    <glyph glyph-name="cailiao" unicode="&#59199;" d="M205.505008 282.944737a205.499248 205.499248 0 1 1 205.435249-205.307252 206.075235 206.075235 0 0 1-205.435249 205.307252z m0-359.607684a154.108436 154.108436 0 1 0 154.108436 154.300432 153.596448 153.596448 0 0 0-154.108436-154.236434z m821.932993 359.607684a206.075235 206.075235 0 0 1-205.499248 205.499248 199.80338 199.80338 0 0 1-89.021942-20.543525l78.782179 78.782178A203.451295 203.451295 0 0 1 667.894315 895.98656a193.275531 193.275531 0 0 1-143.804674-61.630574l37.695128-37.695129a152.316478 152.316478 0 0 0 109.565466 44.798964 142.908695 142.908695 0 0 0 150.716515-147.196596 158.396337 158.396337 0 0 0-44.798964-109.565466L616.439505 423.229493v13.695683A206.075235 206.075235 0 0 1 410.940257 642.552421h-13.695683l160.956278 160.956278-37.695129 37.695128-246.522299-250.042218a197.435434 197.435434 0 0 1-68.478416-154.108436 206.075235 206.075235 0 0 1 205.499248-205.499248 203.899285 203.899285 0 0 1 92.477861 20.543525l-20.543525-20.543525a200.443365 200.443365 0 0 1-71.998335-153.91644 206.075235 206.075235 0 0 1 205.499248-205.499248 193.275531 193.275531 0 0 1 143.804674 61.630575l205.499248 205.499247a193.275531 193.275531 0 0 1 61.630575 143.804675zM256.831821 437.053173a139.388777 139.388777 0 0 0 41.08705 102.717625l13.695683 13.695683a149.18055 149.18055 0 0 0 99.325703 37.695128 154.108436 154.108436 0 1 0-154.108436-154.108436z m359.607684-513.652122a153.596448 153.596448 0 0 0-154.108436 154.236434 158.140343 158.140343 0 0 0 37.695128 102.397632l13.695683 13.695683a149.18055 149.18055 0 0 0 99.325703 37.695128 153.596448 153.596448 0 0 0 154.108437-153.788443 150.588518 150.588518 0 0 0-150.716515-154.236434z m205.499248 140.412753v13.823681a206.075235 206.075235 0 0 1-205.499248 205.499247h-13.695683l109.565466 109.565467a155.004416 155.004416 0 0 0 263.673903-109.565467 158.396337 158.396337 0 0 0-44.798965-109.565466L821.61876 64.0058zM410.940257 539.834796A102.717625 102.717625 0 1 1 513.657882 437.117172a100.925666 100.925666 0 0 1-102.717625 102.717624z m0-154.108436a51.198816 51.198816 0 1 0 51.198816 51.198816 52.670782 52.670782 0 0 0-51.198816-51.198816z m-205.435249-205.691243a102.781623 102.781623 0 0 1 0-205.499248 102.781623 102.781623 0 0 1 0 205.499248z m0-154.108437a51.326813 51.326813 0 1 0 0 102.717625 51.326813 51.326813 0 1 0 0-102.717625z m410.934497 154.108437a102.717625 102.717625 0 1 1 102.717625-102.397632 100.925666 100.925666 0 0 1-102.717625 102.397632z m0-154.108437a51.198816 51.198816 0 1 0 51.198816 51.198816 52.670782 52.670782 0 0 0-51.198816-51.00682z"  horiz-adv-x="1027" />

    
    <glyph glyph-name="gongzuotai1" unicode="&#59200;" d="M890.13462914 5.347555550000038H132.70028642c-13.20429037 0-23.94895803-10.74466765-23.94895803-23.94895802s10.74466765-23.94895803 23.94895803-23.94895803h757.56379655c13.20429037 0 23.94895803 10.74466765 23.94895801 23.94895803s-10.74466765 23.94895803-24.07841184 23.94895802zM890.13462914-49.79977482000004H132.70028642c-17.21735902 0-31.06891852 13.98101333-31.06891852 31.06891852s13.98101333 31.06891852 31.06891852 31.06891852h757.56379655c17.21735902 0 31.06891852-13.98101333 31.06891851-31.06891852s-13.98101333-31.06891852-31.19837234-31.06891852zM132.70028642-1.7724049400000013c-9.32067555 0-16.82899753-7.63777581-16.82899753-16.82899753s7.63777581-16.82899753 16.82899753-16.82899753h757.56379655c9.32067555 0 16.82899753 7.63777581 16.82899753 16.82899753s-7.63777581 16.82899753-16.82899753 16.82899753H132.70028642zM951.36628939 818.31759013H71.46862617c-33.52854124 0-60.97275259-27.31475753-60.97275259-60.9727526v-576.45789235c0-33.65799506 27.31475753-60.97275259 60.97275259-60.97275259h879.89766322c33.52854124 0 60.97275259 27.31475753 60.97275258 60.97275259V757.34483753c-0.12945383 33.52854124-27.44421136 60.97275259-60.97275258 60.9727526z m-1.42399211-62.26729088v-573.86881578H72.89261827V756.05029925h877.04967901zM830.45641482 659.21883653c-8.28504494 0.77672297-16.31118222-1.68289975-22.78387358-6.99050666l-0.38836149-0.38836148-215.79952988-238.19504197L356.1375921 565.23535803l-0.77672296 0.38836147c-12.03920592 5.82542222-26.40858075 3.3657995-35.72925631-6.21378369l-0.25890765-0.25890766L172.83097283 383.87054617c-5.69596839-5.95487605-8.80286025-13.59265185-8.67340641-21.87769678 0.12945383-8.28504494 3.3657995-16.05227457 9.32067555-21.8776968 5.82542222-5.82542222 13.59265185-8.93231408 21.87769679-8.93231407 8.41449876 0 16.31118222 3.3657995 22.13660444 9.32067556l0.25890766 0.25890765 130.74836544 158.45148444L581.90506667 348.40019753l0.77672296-0.38836148c11.00357531-5.30760691 24.07841185-3.62470717 33.3990874 4.01306864l0.38836149 0.25890766 231.33398913 252.30550913c12.81592889 11.00357531 14.49882864 30.42164939 3.62470717 43.49648593-5.17815309 6.47269136-12.68647506 10.35630617-20.97152 11.13302912z"  horiz-adv-x="1024" />

    
    <glyph glyph-name="lianxi1" unicode="&#59202;" d="M529 443.5m-244 0a244 244 0 1 1 488 0 244 244 0 1 1-488 0ZM1005.3-96.1c-23.4 143.9-110.2 266.6-230.9 338.2-59.5-68.6-147.3-112-245.2-112-98.4 0-186.6 43.8-246.1 113C161.4 171.7 73.9 48.5 50.4-96.1h954.9zM890.1 371.4c3.2 19.5 4.8 39.4 4.8 59.8s-1.7 40.3-4.8 59.8v-119.6zM202.7 554.9C252.4 684.5 378 776.6 525.2 776.6s272.8-92 322.5-221.7h25.9c-50.9 143.3-187.7 246-348.5 246s-297.6-102.6-348.5-246h26.1zM203.7 560.8c-54.9-2.8-98.6-48.2-98.6-103.9s43.7-101 98.6-103.9V560.8zM848.1 559.8c54.9-2.8 98.6-48.2 98.6-103.9S903 354.9 848.1 352V559.8z"  horiz-adv-x="1024" />

    
    <glyph glyph-name="eye-close" unicode="&#59197;" d="M1008.6369665 523.03531057c10.79283026 16.18865417 7.19482641 37.77431469-7.19482641 50.36614628-16.18865417 12.59183276-37.77431469 8.99382776-50.3661463-7.19482525-1.7990025-1.7990025-201.4634062-237.43990197-438.90330817-237.43990198-230.24389313 0-438.90330817 237.43990197-440.70231066 239.2377209-12.59183276 14.39083525-35.97531219 16.18865417-50.36614746 3.598005-14.39083525-12.59183276-16.18865417-35.97531219-3.59800383-50.36614746 3.59800384-5.39582392 46.76814245-53.96296886 115.12194656-107.92712014l-91.73846713-95.33528855c-14.39083525-14.39083525-12.59183276-37.77431469 1.79900251-50.36614745 3.59800384-7.19482641 12.59183276-10.79283026 21.58566051-10.79283026 8.99382776 0 17.98765668 3.59800384 25.18248309 10.79283026l98.93329238 102.53011381c46.76814245-32.37849077 102.53011381-62.9579802 163.68909152-84.54245713L314.30491726 157.88162927999997c-5.39582392-19.78665802 5.39700633-39.57331719 25.1824831-44.96913995h10.79283025c16.18865417 0 30.57948827 10.79283026 34.17630969 26.98148443l37.7743147 127.71377816c28.78048693-5.39582392 59.3599752-8.99382776 89.93946462-8.99382775s61.1589777 3.59800384 89.93946464 8.99382775l37.77431469-125.91477681c3.59800384-16.18865417 19.78665802-26.98148443 34.17749327-26.98148444 3.59800384 0 7.19482641 0 8.99382776 1.7990025 19.78665802 5.39700633 30.57948827 25.18248193 25.18366551 44.96914111l-37.7743147 125.91477681c61.1589777 21.58566052 116.92094906 52.16514994 163.68909152 84.54245715l97.1342899-100.73229489c7.19482641-7.19482641 16.18865417-10.79283026 25.18248193-10.79283026 8.99382776 0 17.98765668 3.59800384 25.18248193 10.79283026 14.39083525 14.39083525 14.39083525 35.97531219 1.7990025 50.36614743l-91.73846598 95.33528856c73.75199288 53.96415128 116.92331391 106.12930123 116.92331391 106.12930123z"  horiz-adv-x="1024" />

    
    <glyph glyph-name="star2" unicode="&#59196;" d="M889.64566348 886.66397426H139.78520815c-69.01780343 0-124.97293141-55.95512798-124.97293142-124.97864811v-749.86045533c0-69.01780343 55.95512798-124.96721472 124.97293142-124.96721473h749.86045533c69.01780343 0 124.97293141 55.94941127 124.97293142 124.96721473V761.69104286c0 69.02352014-55.95512798 124.97864812-124.97293142 124.97864812z m-9.19246483-423.67087143l-142.58610563-118.39871837a44.47598036 44.47598036 0 0 1-14.68622025-45.19628542l45.76795612-179.59606669c9.92992003-38.97650823-32.86534846-70.06967752-66.8626049-48.58057595l-156.66635494 99.0247984a44.47598036 44.47598036 0 0 1-47.52870189 0l-156.66063824-99.0247984c-34.00297316-21.48910155-76.79252494 9.60406774-66.86260491 48.58057595l45.76223943 179.59606669a44.47598036 44.47598036 0 0 1-14.68622025 45.19628542L162.85783754 462.99310283c-30.94453492 25.6908812-14.60046964 76.00361937 25.54224683 78.60472107l184.94690439 11.97078442a44.47598036 44.47598036 0 0 1 38.44485448 27.93183033l68.54331677 172.19293112c14.86915487 37.37011356 67.76584461 37.37011356 82.64643288 0l68.53760006-172.18721442a44.48741377 44.48741377 0 0 1 38.45057118-27.93754703l184.94690443-11.97650113c40.13128304-2.59538497 56.48106502-52.90812315 25.53653009-78.59900436z"  horiz-adv-x="1024" />

    
    <glyph glyph-name="-zonghefuwu" unicode="&#59190;" d="M363.72549 543.282726c9.710153 0 18.503423-4.843308 23.524786-12.962219l92.487438-149.465127a38.400588 38.400588 0 0 1 32.643468-18.194384c2.170432 0 4.361331 0.184195 6.549159 0.563842a38.396495 38.396495 0 0 1 30.999015 29.766954c1.595334 7.424086 5.962805 13.665231 12.299117 17.573237 0.267083 0.164752 0.531096 0.331551 0.792039 0.502443a27.028587 27.028587 0 0 0 13.510712 3.607155c8.284687 0 16.028045-3.560082 21.245883-9.766435a38.394449 38.394449 0 0 1 41.210587-11.826349 38.396495 38.396495 0 0 1 26.476002 33.722032c0.653893 8.903787 5.482875 16.965393 12.93459 21.574365a27.055193 27.055193 0 0 0 14.253632 4.050245c8.284687 0 16.041348-3.568269 21.280676-9.78997a38.399565 38.399565 0 0 1 29.374004-13.664208 38.399565 38.399565 0 0 1 38.294165 35.654035c0.635473 8.863878 5.438872 16.888645 12.887518 21.48943 4.535293 2.807952 9.831926 4.291746 15.319917 4.291746 3.574409 0 15.687284-0.824785 21.4925-11.422143l128.017652-233.818304c17.475-31.912827 25.339108-66.477041 23.373337-102.737895-1.828648-33.737382-12.359492-67.710125-30.454616-98.247628-18.104333-30.556946-42.863227-56.277748-71.598688-74.383105-29.349445-18.49319-61.980633-28.266787-94.369297-28.266787-25.490557 0-50.989301 5.930059-75.790151 17.626449L360.054891 124.396427c-6.572696 3.097548-11.567453 8.632611-14.065344 15.587a27.838022 27.838022 0 0 0-1.648546 10.212596c13.261025 4.79112 32.476669 8.698103 51.933813 8.698103 18.10638 0 26.708292-3.38919 28.90533-4.424776l66.351174-31.290657a38.392402 38.392402 0 0 1 45.025472 9.16166c11.322883 12.688997 12.951987 31.31317 4.002151 45.774533L340.499509 501.369128c-3.823072 6.181793-4.993734 13.554714-3.298116 20.759813 1.650593 7.014764 5.805216 12.95301 11.726066 16.781198 0.170892 0.102331 0.341784 0.205685 0.511653 0.311085a27.101241 27.101241 0 0 0 14.284332 4.061502h0.002046m-0.00307 38.397519a65.336054 65.336054 0 0 1-34.507931-9.818623h-0.01842c-30.803563-19.048845-40.403199-59.883879-21.355377-90.687442l200.068641-323.265498-66.351173 31.290657c-11.899004 5.607718-28.052916 8.094352-45.282323 8.094352-30.576389 0-64.537875-7.832386-84.083024-19.942191-15.448854-32.771381-1.294482-72.239278 31.497365-87.688132l350.411765-165.233252c31.124881-14.678304 62.204737-21.293979 92.166119-21.293978 164.527171 0 294.78484 199.668529 206.727295 360.478028l-128.015605 233.815233c-11.231809 20.502963-32.917714 31.379685-55.172577 31.379684-12.218276 0-24.609491-3.279696-35.534308-10.04375-18.637476-11.512195-29.510104-30.991852-30.972409-51.390437-12.791327 15.187911-31.553647 23.452131-50.649563 23.452131a65.282842 65.282842 0 0 1-34.47007-9.804296c-18.636452-11.529591-29.513174-30.989805-31.012317-51.407834-12.769838 15.190981-31.53932 23.456225-50.637284 23.456225-11.80179 0-23.730471-3.1569-34.444487-9.788947l-0.016373-0.037863c-15.805988-9.749038-26.043143-25.25622-29.682019-42.185798l-92.487438 149.465127c-12.420891 20.084431-34.07405 31.157627-56.178487 31.156604zM291.268248 327.729415a19.207457 19.207457 0 0 0-6.39157 1.099031c-83.951017 29.635971-140.355655 109.401666-140.355655 198.48661 0 116.034736 94.409207 210.435757 210.455199 210.435757 50.594305 0 99.499132-18.22406 137.710408-51.311643 37.813211-32.746822 62.783928-77.872578 70.311369-127.064954 1.602498-10.481725-5.593392-20.277836-16.07307-21.882379-10.491958-1.603521-20.278859 5.593392-21.88238 16.074093-6.15007 40.186258-26.567076 77.066213-57.494459 103.848183-31.229259 27.04496-71.208808 41.939181-112.571868 41.939181-94.871741 0-172.056658-77.175707-172.056657-172.038238 0-72.835865 46.110177-138.051169 114.73923-162.27692 9.998725-3.529383 15.242146-14.496156 11.712763-24.495904-2.78237-7.884574-10.19213-12.812817-18.10331-12.812817zM214.12324 205.448418c-2.696412 0-5.436826 0.574075-8.046256 1.778506-60.45079 27.958772-111.685685 72.304769-148.166551 128.244826C20.459472 392.902764 0.662591 459.641771 0.662591 528.476509c0 94.498234 36.803207 183.341678 103.630218 250.166643 66.824965 66.821895 155.665339 103.623056 250.157434 103.623056 160.575162 0 301.280788-108.322078 342.166987-263.418459 2.703575-10.253528-3.415796-20.75572-13.669325-23.459294-10.247388-2.703575-20.75572 3.418866-23.458271 13.670347C623.04356 747.310539 497.606687 843.867666 354.451266 843.867666c-173.906795 0-315.390133-141.483338-315.390133-315.391157 0-61.367673 17.639752-120.854509 51.012837-172.029028 32.537044-49.894364 78.223572-89.441055 132.12111-114.368794 9.623171-4.451382 13.81668-15.861246 9.366321-25.484418-3.244904-7.012717-10.18599-11.145851-17.438161-11.145851z"  horiz-adv-x="1024" />

    
    <glyph glyph-name="duiwujianshe" unicode="&#59191;" d="M349.461869-32.999841s-16.272842 223.373354 155.325976 397.932912c66.568782 73.964131 131.657784 106.508632 204.143318 109.467008s144.971068-19.231218 244.084352-139.054315 121.302877-366.865825 121.302877-366.865826l-724.856523-1.479779zM707.452566 717.004652m-178.995348 0a178.995348 178.995348 0 1 1 357.990697 0 178.995348 178.995348 0 1 1-357.990697 0ZM1149.398267 472.9203m-113.906346 0a113.906346 113.906346 0 1 1 227.812691 0 113.906346 113.906346 0 1 1-227.812691 0ZM1229.887845 283.15755c62.621128-36.046566 156.973589-121.889115 175.429459-316.157391H1208.570517s-6.656642 222.634647-85.04829 347.00582c48.065634-4.179312 73.615461-12.000157 106.365618-30.848429zM265.142831 478.837053m-113.906346 0a113.906346 113.906346 0 1 1 227.812692 0 113.906346 113.906346 0 1 1-227.812692 0ZM184.653252 283.15755c-62.621128-36.046566-156.973589-121.889115-175.429459-316.157391h196.746787s6.656642 222.634647 85.048291 347.00582c-48.065634-4.179312-73.615461-12.000157-106.365619-30.848429z"  horiz-adv-x="1436" />

    
    <glyph glyph-name="fengxianguankong" unicode="&#59192;" d="M913.408 707.584c-4.096 32.768-10.24 63.488-16.384 92.16-2.048 16.384-16.384 28.672-34.816 28.672H161.792c-14.336 0-28.672-10.24-32.768-24.576-8.192-30.72-14.336-63.488-18.432-96.256-4.096-30.72-6.144-63.488-6.144-96.256 0-143.36 38.912-274.432 106.496-385.024 69.632-112.64 169.984-202.752 286.72-256 8.192-4.096 18.432-4.096 26.624 0 116.736 53.248 217.088 143.36 286.72 256 67.584 110.592 106.496 241.664 106.496 385.024 2.048 32.768 0 65.536-4.096 96.256zM755.712 265.216C696.32 166.912 610.304 89.088 512 41.984c-98.304 47.104-184.32 124.928-243.712 223.232-61.44 98.304-96.256 219.136-96.256 348.16 0 30.72 2.048 59.392 6.144 88.064 2.048 20.48 6.144 40.96 10.24 61.44h647.168c4.096-20.48 8.192-40.96 10.24-61.44 4.096-28.672 6.144-57.344 6.144-88.064 0-131.072-34.816-249.856-96.256-348.16z m20.48 370.688c0 8.192 0 16.384-2.048 24.576 0 10.24-10.24 18.432-20.48 18.432H268.288c-10.24 0-20.48-8.192-20.48-18.432 0-8.192-2.048-14.336-2.048-22.528v-22.528c0-96.256 24.576-192.512 69.632-276.48C358.4 259.072 421.888 189.44 501.76 140.288c6.144-4.096 14.336-4.096 20.48 0 79.872 49.152 143.36 118.784 186.368 198.656 45.056 83.968 69.632 178.176 69.632 276.48 0 4.096-2.048 12.288-2.048 20.48zM286.72 613.376v24.576h391.168l-327.68-280.576c-40.96 77.824-63.488 165.888-63.488 256z m387.072-258.048C634.88 285.696 581.632 224.256 512 179.2c-49.152 30.72-92.16 71.68-124.928 120.832L737.28 599.04c-4.096-86.016-24.576-169.984-63.488-243.712z"  horiz-adv-x="1024" />

    
    <glyph glyph-name="gongnengshengji" unicode="&#59193;" d="M607.908115 856.613567l18.70762-131.741032a27.569125 27.569125 0 0 1 17.329164-21.661455 345.992515 345.992515 0 0 0 78.768928-45.292134 28.159892 28.159892 0 0 1 27.766047-3.741524l119.728771 51.002881 100.824227-168.762428-106.534975-82.116607a27.766047 27.766047 0 0 1-10.436883-25.402979 376.318553 376.318553 0 0 0 3.150757-44.898289 340.084846 340.084846 0 0 0-3.150757-45.095211 27.372202 27.372202 0 0 1 10.436883-25.206057l104.171907-78.768928-95.507325-171.125496-124.061061 49.821347a27.766047 27.766047 0 0 1-27.766047-3.741524A339.887924 339.887924 0 0 0 643.944899 64.985842a27.766047 27.766047 0 0 1-16.935319-21.661455l-18.313776-129.181041-193.968485-2.756913-18.70762 131.937954a27.372202 27.372202 0 0 1-16.935319 21.661455 348.355583 348.355583 0 0 0-78.768928 45.095212 27.962969 27.962969 0 0 1-27.569125 3.741524l-118.744159-51.002881L53.177941 231.582125l105.353441 82.116607a27.372202 27.372202 0 0 1 10.23996 25.206057A347.174049 347.174049 0 0 0 165.620585 384a334.767943 334.767943 0 0 0 3.150757 44.898289 27.17528 27.17528 0 0 1-10.436883 25.402979l-104.171907 78.768928 95.310403 170.928573 124.061061-49.821347a28.159892 28.159892 0 0 1 27.766047 3.741524 345.992515 345.992515 0 0 0 78.768928 45.292134 27.766047 27.766047 0 0 1 16.93532 21.661455l15.556863 128.984119z m-103.58114-329.451041a150.448652 150.448652 0 1 1 150.448652-150.25173 150.448652 150.448652 0 0 1-150.448652 150.25173zM414.727319-127.998031a39.384464 39.384464 0 0 0-39.384463 33.870639l-17.723009 125.242595a393.844639 393.844639 0 0 0-75.421249 43.716755L169.362109 26.58599a39.384464 39.384464 0 0 0-49.23058 15.950708L19.307302 211.299126a39.384464 39.384464 0 0 0 9.649194 51.396725l100.036538 78.768928A345.007904 345.007904 0 0 0 126.236121 384a374.152407 374.152407 0 0 0 2.559991 43.32291L30.531874 502.153392a39.384464 39.384464 0 0 0-10.830727 49.821347l95.507324 171.322418a39.384464 39.384464 0 0 0 49.033658 17.329164l118.153392-47.458279a385.376979 385.376979 0 0 0 75.61817 43.716755l14.572252 121.697993a39.384464 39.384464 0 0 0 39.384464 34.658328l196.92232 2.756913a39.384464 39.384464 0 0 0 39.384463-33.870639l17.723009-125.242595a378.287776 378.287776 0 0 0 75.421249-43.716755l113.230333 48.245968a39.384464 39.384464 0 0 0 49.23058-16.14763l100.824228-168.565506a39.384464 39.384464 0 0 0-9.452272-51.199803l-100.23346-78.768928a354.460175 354.460175 0 0 0 2.756912-43.32291 342.841758 342.841758 0 0 0-2.756912-43.125988l98.46116-74.239714a39.384464 39.384464 0 0 0 10.633805-50.609037l-95.310403-171.125495a39.384464 39.384464 0 0 0-49.033657-17.526087l-118.153392 47.655202a376.712397 376.712397 0 0 0-75.618171-43.913678l-17.329164-122.485682a39.384464 39.384464 0 0 0-39.384464-33.870639l-193.968485-2.166146z m-130.362575 283.174296a67.544356 67.544356 0 0 0 40.959842-13.784563 301.094227 301.094227 0 0 1 68.922812-39.384464A67.347433 67.347433 0 0 0 435.010318 49.232057l13.981485-98.46116 125.045673 1.772301 13.58764 96.688859a67.741278 67.741278 0 0 0 40.76292 52.578259 295.383479 295.383479 0 0 1 68.922812 39.384464 67.9382 67.9382 0 0 0 66.756666 9.255349l91.568879-37.021396 61.833608 110.867266L840.867219 282.191161A67.9382 67.9382 0 0 0 814.873473 344.615536a281.00815 281.00815 0 0 1 2.953835 39.384464 289.278887 289.278887 0 0 1-2.953835 39.384464A66.953589 66.953589 0 0 0 840.867219 485.218072l78.768928 60.848997-65.181288 109.291887-88.221199-37.41524a68.528967 68.528967 0 0 0-66.756666 8.467659 306.411129 306.411129 0 0 1-69.316657 39.384464A67.544356 67.544356 0 0 0 587.625116 718.767943l-13.784562 98.46116-126.817974-2.363068-11.815339-94.719636a67.9382 67.9382 0 0 0-40.959843-53.365948 301.881916 301.881916 0 0 1-68.922812-39.384464 68.528967 68.528967 0 0 0-66.559744-8.861504l-91.7658 36.036784-61.636686-110.867266 76.799704-58.092084A67.150511 67.150511 0 0 0 207.761962 423.384464a291.248111 291.248111 0 0 1-2.756913-39.384464 299.518848 299.518848 0 0 1 2.756913-39.384464 66.953589 66.953589 0 0 0-25.009135-61.636686l-78.768928-60.848997 65.37821-109.488809 88.024277 37.612163a67.544356 67.544356 0 0 0 26.978358 4.923058z m450.164422-78.768928z m11.02765 1.575378z m-615.776093 354.460176z m157.537856 255.999015z m377.500086 39.384464zM658.714073 738.460175z m-295.383479 0z m140.996381-551.382495a189.833116 189.833116 0 1 0 189.833116 189.833116A190.030038 190.030038 0 0 0 504.326975 187.07768z m0 300.700382a111.064188 111.064188 0 1 1 111.064188-110.867266 111.064188 111.064188 0 0 1-111.064188 110.867266z"  horiz-adv-x="1024" />

    
    <glyph glyph-name="kejifuneng" unicode="&#59194;" d="M735.429583-127.990325c-123.631378 0-291.877557 145.132487-413.896351 368.475259-144.863723 265.001171-161.258319 525.433355-38.701997 591.280502S615.829663 745.492236 760.693386 480.491065s161.258319-525.702119 38.701997-592.893085a132.500585 132.500585 0 0 0-63.9658-15.588305zM347.065799 791.71962a76.866465 76.866465 0 0 1-36.82065-8.600443c-80.629159-43.80851-74.716354-266.34499 61.278161-515.220329s320.366527-373.850536 400.458159-330.042026 74.716354 266.076226-61.278161 515.220329C591.372152 669.163298 438.176749 791.71962 347.065799 791.71962zM561.808127 113.62839h-29.026498A961.09958 961.09958 0 0 0 161.349968 189.957327c-107.505546 49.183787-163.945957 115.568462-161.258319 186.790886s62.353217 134.381932 170.933818 179.265498a965.93733 965.93733 0 0 0 373.581772 58.590523c302.090584-7.256624 537.527729-122.825086 532.68998-263.119824-2.150111-135.725752-227.37423-237.85602-515.489092-237.85602z m-26.876387 57.515467c283.814641-6.719097 483.774956 90.304659 486.193831 181.684372s-193.241219 197.810204-477.05586 204.529301a906.540516 906.540516 0 0 1-349.393024-53.752772c-84.929381-34.670539-134.381932-80.629159-134.381932-127.662836s45.958621-95.142408 129.006655-134.381933A903.046585 903.046585 0 0 1 534.125448 170.337565zM839.441199 635.299051c-4.300222-96.754991-45.421093-230.599396-131.156766-371.431661-147.820126-241.887478-337.567414-358.262232-415.508935-310.959791S230.422281 222.477755 378.242407 465.977816c83.585562 137.069571 180.340553 233.287035 263.119824 283.00835A151.314056 151.314056 0 0 0 635.718189 788.494454a138.682154 138.682154 0 0 0 1.612584 21.232345c-102.130269-52.14019-215.011092-164.214721-308.003389-316.335068-157.226861-258.01331-186.253358-517.101676-66.384675-591.280503a134.381932 134.381932 0 0 1 70.95366-18.81347c123.09385 0 293.49014 135.725752 423.034323 349.393024 95.9487 157.495625 144.057431 315.260013 139.75721 430.022183a159.108208 159.108208 0 0 0-57.246703-27.413914zM689.470962 788.494454a107.505546 107.505546 0 1 1 107.505546 107.505546 107.505546 107.505546 0 0 1-107.505546-107.505546z"  horiz-adv-x="1077" />

    
    <glyph glyph-name="jingying1" unicode="&#59195;" d="M973.6 561.6c0 3.2-1.6 4.8-1.6 6.4l-80.8 188.8c-13.6 39.2-52.8 62.4-100 62.4H232.8c-46.4 0-84-23.2-96.8-60.8l-85.6-192c0-1.6-1.6-3.2-1.6-4.8-6.4-18.4-9.6-37.6-9.6-56 0-65.6 37.6-126.4 100-156 24.8-12.8 54.4-18.4 88.8-18.4 56 0 107.2 23.2 143.2 64 36-39.2 85.6-62.4 141.6-62.4 54.4 0 105.6 23.2 141.6 62.4 36-40.8 87.2-62.4 143.2-62.4 34.4 0 64 6.4 88.8 20 60.8 31.2 98.4 90.4 98.4 156-1.6 16.8-4.8 35.2-11.2 52.8z m-121.6-156c-15.2-8-34.4-12.8-57.6-12.8-42.4 0-79.2 20-100.8 52.8-1.6 3.2-4.8 8-9.6 13.6-6.4 6.4-15.2 12.8-32.8 12.8-13.6 0-26.4-4.8-32.8-12.8-4.8-4.8-8-9.6-9.6-12.8-21.6-32.8-59.2-52.8-100-52.8s-77.6 20-100.8 52.8c-1.6 3.2-4.8 8-8 12.8-15.2 18.4-51.2 16.8-65.6 1.6-4.8-4.8-8-11.2-9.6-13.6-21.6-32.8-59.2-52.8-100.8-52.8-21.6 0-40.8 3.2-56 11.2-39.2 20-64 57.6-64 100 0 12.8 1.6 24.8 6.4 37.6 0 1.6 0 1.6 1.6 3.2l84 188c1.6 4.8 6.4 18.4 32.8 18.4h559.2c11.2 0 29.6-3.2 36-20l79.2-185.6c0-1.6 0-3.2 1.6-3.2 4.8-12.8 6.4-24.8 6.4-36 3.2-46.4-20-83.2-59.2-102.4zM520.8 0.8H184c-11.2 0-18.4 9.6-18.4 18.4V206.4c0 18.4-15.2 34.4-34.4 34.4s-34.4-15.2-34.4-34.4v-187.2c0-49.6 39.2-88.8 87.2-88.8h336l0.8 70.4zM777.6 558.4H232.8c-18.4 0-34.4 15.2-34.4 34.4s15.2 34.4 34.4 34.4H776c18.4 0 34.4-15.2 34.4-34.4s-14.4-34.4-32.8-34.4M828.8 327.2c-78.4 0-144-64-144-144s64-144 144-144 144 64 144 144c0.8 80-65.6 144-144 144z m0-256c-61.6 0-113.6 49.6-113.6 113.6 0 64 49.6 113.6 113.6 113.6 64 0 113.6-49.6 113.6-113.6 0-64-51.2-113.6-113.6-113.6z m0 0M828.8 254.4c-39.2 0-70.4-31.2-70.4-70.4s31.2-70.4 70.4-70.4 70.4 31.2 70.4 70.4c0 40-31.2 70.4-70.4 70.4z m0-111.2c-22.4 0-39.2 18.4-39.2 39.2 0 20.8 18.4 39.2 39.2 39.2 20.8 0 39.2-18.4 39.2-39.2 0-20-16-39.2-39.2-39.2z m68-108.8v-68l-64 26.4c-2.4 0-4 2.4-6.4 2.4s-4 0-6.4-2.4l-57.6-26.4v68c-10.4 4-20.8 10.4-31.2 16.8v-108.8c0-6.4 2.4-10.4 6.4-12 2.4-2.4 6.4-2.4 8-2.4 2.4 0 4 0 6.4 2.4l74.4 32.8 78.4-32.8c4-2.4 10.4-2.4 14.4 2.4 4 2.4 6.4 8 6.4 12v108.8c-8-8.8-18.4-15.2-28.8-19.2z m0 0"  horiz-adv-x="1024" />

    
    <glyph glyph-name="dangdejianshe1" unicode="&#59189;" d="M786.478545 229.469091L466.525091 551.563636l122.135273 122.786909-76.334546 76.148364c-42.170182-41.332364-109.149091-50.176-154.344727-31.930182L114.781091 474.763636l137.774545-137.448727 91.741091 91.601455 319.860364-321.582546c-156.532364-86.109091-373.480727-58.973091-533.597091 107.706182l-77.544727-77.451636c23.272727-32.256 42.682182-61.486545 66.885818-86.016-2.094545-2.56-8.750545-8.005818-8.843636-8.145455-4.096 0.651636-8.936727 2.234182-13.21891 2.234182-41.239273 0-74.565818-35.979636-74.565818-77.358546 0-41.285818 33.652364-74.938182 74.891637-74.938181 41.285818 0 76.567273 33.978182 76.567272 75.310545 0 4.794182-1.070545 9.216-1.861818 13.777455l11.869091 11.682909c184.087273-124.369455 385.861818-139.869091 602.949818-9.728l89.646546-90.158546 122.693818 121.297455-90.205091 91.368727c258.932364 390.981818-86.295273 774.981818-397.498182 765.672727 252.276364-94.813091 405.271273-397.684364 274.152727-643.118545z"  horiz-adv-x="1024" />

    
    <glyph glyph-name="zhuanxingjia" unicode="&#59180;" d="M166.33344 480.4608L31.06816 556.50304l366.31552 205.1328L784.90112 551.424v-155.78624l-387.51744-210.57024v167.31648l235.88352 120.97024-235.88352 125.55776zM397.38368 505.3184L6.9376 319.60576v-171.09504l390.44608-201.79968 383.12448 206.62784-146.2272 79.21664-236.89728-124.98944-231.05024 118.4512 231.05024 126.36672v152.9344M780.50816 718.98112h237.12768v-56.86784h-237.12768zM865.31584 800.73728h65.50528v-224.87552h-65.50528z"  horiz-adv-x="1024" />

    
    <glyph glyph-name="dangdejianshe" unicode="&#59181;" d="M762.368-56.832v12.288c-2.048 25.6-5.12 51.2-5.632 76.8 0 15.872-6.656 26.112-16.896 36.352-58.368 56.32-129.024 89.088-205.312 112.64-45.056 13.824-89.088 29.696-132.608 47.104-49.152 19.968-97.792 41.984-145.92 65.024-54.272 26.112-104.448 59.392-145.92 103.936-42.496 46.08-59.392 98.816-43.52 160.256C81.92 617.472 122.368 655.872 178.688 675.84c38.912 13.824 80.384 17.408 122.88 11.776 34.816-4.608 69.632-7.168 102.4-19.456 22.528-8.704 44.032-19.456 65.536-30.72 11.776-6.144 22.016-15.36 32.768-23.552 1.536 1.536 3.072 2.56 5.12 4.096-3.072 5.632-4.608 12.288-9.216 16.896-40.448 42.496-92.16 64.512-148.48 73.728-78.336 12.8-152.576 0-219.648-45.568-4.096-2.56-8.704-4.096-13.312-6.144-0.512 1.536-1.536 3.072-2.048 4.096 26.624 29.696 62.464 45.056 99.84 55.808 102.4 28.16 199.68 13.824 287.744-46.08 1.024 0.512 1.536 1.024 2.048 1.024 0.512 2.56 1.024 4.608 1.536 7.168 8.704 46.08 29.184 86.528 63.488 118.272 33.28 30.72 72.704 48.64 117.248 57.344 63.488 12.8 124.928 6.144 179.712-27.648 63.488-38.912 91.136-101.888 99.84-173.056 9.216-78.848-11.776-152.576-46.592-223.232-31.744-64-70.144-123.392-116.736-178.176-41.472-48.64-40.448-50.176-31.232-114.176 1.024-6.144 2.048-12.288 4.096-23.552 24.064 27.136 46.592 49.152 65.024 73.728 27.136 36.352 52.224 74.752 77.312 112.64 33.792 51.2 59.904 106.496 80.384 164.352 19.968 55.808 26.624 113.152 15.36 172.032-13.312 70.144-46.08 129.024-99.84 176.128C860.16 860.16 796.16 881.152 726.528 881.152c-36.864 0-74.752-6.144-110.592-21.504-49.152-21.504-91.136-50.688-123.392-93.184-5.632-7.168-9.728-9.216-18.944-6.144-28.672 10.24-57.344 23.552-87.04 27.136-49.664 5.632-100.352 7.68-150.528-6.144C184.32 768 138.24 744.96 98.816 709.632c-116.736-103.424-125.44-275.456-19.456-389.12 65.024-69.632 145.408-118.272 228.352-162.816 83.968-45.056 173.568-76.8 261.12-112.64 60.928-25.088 119.296-55.808 174.592-91.648 5.12-3.584 11.264-6.144 18.944-10.24zM713.728 389.12c-5.632 3.584-9.216 6.656-13.824 8.704-12.8 6.656-13.312 15.36-5.632 26.112 15.872 23.04 21.504 48.64 19.968 77.312-1.536 25.088-10.24 46.08-26.112 64.512-25.088 30.208-61.44 41.984-95.232 58.368-5.632 2.56-13.312 0.512-19.968 0.512-0.512-1.536-1.024-2.56-1.024-4.096 7.168-6.144 13.824-13.312 21.504-18.944 22.016-15.36 42.496-32.256 54.272-56.832 13.824-27.648 17.408-57.856 4.608-87.04-1.536-3.584-14.848-6.656-17.408-4.608-27.136 23.552-52.736 48.128-78.848 72.192-7.68 7.168-6.656 14.336 1.536 20.48 9.216 7.168 18.432 13.824 27.648 20.48-8.192 9.216-11.776 12.288-15.872 14.848-13.312 8.704-54.272 7.68-66.048-2.56-20.48-18.432-40.448-36.864-60.928-55.808-2.048-2.048-5.632-5.632-5.12-7.68 3.072-18.432 16.896-28.672 31.232-37.376 13.312-8.192 17.92 5.12 24.576 11.264 6.144 6.144 10.752 7.68 18.432 1.536 10.752-8.704 27.648-10.24 30.208-28.16 0-1.024 2.048-2.048 3.072-3.072 13.312-10.752 26.112-21.504 39.424-32.256 5.12-4.096 9.216-8.704 14.848-13.824-20.48-17.408-43.52-16.384-65.536-14.848-35.84 2.048-68.096 14.848-93.184 43.008-6.144-5.632-12.8-10.24-16.896-16.384-2.56-3.584-3.584-12.8-1.024-14.336 15.36-11.264 7.168-15.36-4.608-21.504-11.776-5.632-11.264-16.384-7.68-27.648 3.072-9.216 8.704-14.848 17.92-12.288 10.752 2.56 21.504 5.632 26.112 17.92 1.024 3.072 9.728 7.168 11.264 6.144 13.824-10.752 29.696-14.336 46.08-19.456 27.136-8.704 53.76-5.12 80.384-2.56 11.776 1.024 24.576 4.096 34.304 9.728 11.264 6.144 18.944 7.68 27.648-2.56 8.704-9.728 17.92-10.24 27.136-0.512 10.752 8.704 19.968 18.432 32.768 31.232z m-701.952-4.096c-1.024-0.512-2.56-1.024-3.584-1.536 0.512-4.096 0-8.192 1.024-12.288 7.68-40.96 24.576-77.824 50.688-109.568 43.52-53.248 96.768-95.232 154.624-132.608 93.184-60.416 194.56-103.424 296.96-144.896 56.832-23.04 112.128-49.664 167.936-75.264 14.336-6.656 27.136-14.848 41.472-23.04 5.632 34.304 1.024 45.568-20.48 58.368-69.12 39.936-142.336 69.632-216.064 99.328-61.44 24.576-122.88 50.688-181.76 80.384-63.488 32.256-123.904 69.632-178.176 116.736-44.544 38.912-84.992 79.36-105.984 135.68-1.536 3.072-4.608 5.632-6.656 8.704zM762.368-56.832c-7.68 4.096-13.824 6.656-19.456 10.24C687.616-10.24 629.76 20.48 568.32 45.056c-87.552 35.84-177.152 67.584-261.12 112.64-82.944 44.544-163.328 93.184-228.352 162.816-105.984 113.664-97.28 285.696 19.456 389.12C138.24 744.96 184.32 768 236.032 782.336c49.664 13.824 100.352 12.288 150.528 6.144 29.696-3.584 58.368-16.896 87.04-27.136 9.216-3.072 13.824-1.024 18.944 6.144 32.256 43.008 74.24 72.192 123.392 93.184 35.84 15.36 73.216 21.504 110.592 21.504 69.632 0 133.632-20.992 187.392-67.584 53.76-47.104 86.016-106.496 99.84-176.128 11.264-58.88 4.608-115.712-15.36-172.032-20.48-57.856-46.592-113.152-80.384-164.352-25.088-37.888-49.664-76.288-77.312-112.64-18.432-25.088-40.96-47.104-65.024-73.728-2.048 10.752-3.584 17.408-4.096 23.552-9.216 64-10.24 65.024 31.232 114.176 46.592 54.784 84.992 114.176 116.736 178.176 34.816 70.656 55.808 144.384 46.592 223.232-8.192 71.168-36.352 134.144-99.84 173.056-54.784 33.792-116.224 40.448-179.712 27.648-44.032-8.704-83.968-26.624-117.248-57.344-34.304-31.744-54.784-72.192-63.488-118.272-0.512-2.56-1.024-4.608-1.536-7.168 0-0.512-0.512-0.512-2.048-1.024-88.576 59.904-185.344 74.752-287.744 46.08-36.864-10.24-72.704-26.112-99.84-55.808 0.512-1.536 1.536-3.072 2.048-4.096 4.608 2.048 9.216 3.584 13.312 6.144 67.072 45.568 141.312 58.368 219.648 45.568 56.32-9.216 108.032-31.744 148.48-73.728 4.096-4.608 6.144-11.264 9.216-16.896-1.536-1.536-3.072-2.56-5.12-4.096-10.752 7.68-20.992 16.896-32.768 23.552-20.992 11.264-43.008 22.016-65.536 30.72-32.768 12.288-67.584 14.848-102.4 19.456-42.496 5.632-83.968 2.048-122.88-11.776C122.368 656.896 81.92 619.008 66.56 558.592c-15.872-61.44 1.024-114.176 43.52-160.256 41.472-45.056 91.136-77.824 145.92-103.936 48.128-23.04 96.768-45.056 145.92-65.024 43.52-17.408 88.064-33.28 132.608-47.104 76.288-23.552 146.944-56.32 205.312-112.64 10.752-10.24 16.896-20.48 16.896-36.352 0-25.6 3.584-51.2 5.632-76.8 0.512-4.096 0-7.168 0-13.312zM713.728 389.12c-12.8-12.8-22.016-22.528-31.232-32.256-9.216-9.728-18.944-9.728-27.136 0.512-8.704 10.24-16.384 8.704-27.648 2.56-10.24-5.632-22.528-8.704-34.304-9.728-26.624-2.048-53.248-6.144-80.384 2.56-15.872 5.12-32.256 8.704-46.08 19.456-1.536 1.024-10.24-3.072-11.264-6.144-4.608-12.288-15.872-15.36-26.112-17.92-9.728-2.56-14.848 3.072-17.92 12.288-3.584 11.264-4.096 22.016 7.68 27.648 11.776 5.632 19.968 9.728 4.608 21.504-2.048 1.536-1.536 10.752 1.024 14.336 4.096 6.144 10.752 10.752 16.896 16.384 25.088-28.16 57.344-40.96 93.184-43.008 21.504-1.536 45.056-2.56 65.536 14.848-5.12 5.12-9.728 9.728-14.848 13.824-12.8 10.752-26.112 21.504-39.424 32.256-1.024 1.024-3.072 2.048-3.072 3.072-2.56 17.92-18.944 19.456-30.208 28.16-7.68 6.144-12.288 4.096-18.432-1.536-6.656-6.144-11.264-19.456-24.576-11.264-14.336 9.216-28.16 18.944-31.232 37.376-0.512 2.048 3.072 5.632 5.12 7.68 19.968 18.944 40.448 37.376 60.928 55.808 11.776 10.24 52.736 11.776 66.048 2.56 4.096-2.56 7.68-5.632 15.872-14.848-9.216-6.656-18.432-13.312-27.648-20.48-8.192-6.144-9.728-13.312-1.536-20.48 26.112-24.576 52.224-49.152 78.848-72.192 2.56-2.56 15.872 1.024 17.408 4.608 12.8 29.184 9.216 59.392-4.608 87.04-11.776 24.576-32.256 41.472-54.272 56.832-7.68 5.12-14.336 12.288-21.504 18.944 0.512 1.536 1.024 2.56 1.024 4.096 6.656 0 14.848 2.56 19.968-0.512 33.28-16.896 70.144-28.16 95.232-58.368 15.36-18.944 24.576-39.424 26.112-64.512 1.536-28.16-4.096-53.76-19.968-77.312-7.68-10.752-7.168-19.456 5.632-26.112 3.072-1.024 6.656-4.096 12.288-7.68zM11.776 385.024c2.048-3.072 5.12-5.632 6.656-8.704 20.992-56.32 61.952-96.768 105.984-135.68 54.272-47.104 114.688-84.48 178.176-116.736 58.88-30.208 120.32-55.808 181.76-80.384 73.728-29.696 146.944-59.392 216.064-99.328 22.016-12.8 26.112-24.064 20.48-58.368-14.336 8.192-27.648 16.384-41.472 23.04-55.808 25.6-111.104 52.224-167.936 75.264-102.4 41.472-203.776 84.48-296.96 144.896-57.856 37.376-111.104 79.36-154.624 132.608-26.112 31.744-43.008 69.12-50.688 109.568-1.024 4.096-0.512 8.192-1.024 12.288 1.024 0.512 2.56 1.024 3.584 1.536z"  horiz-adv-x="1024" />

    
    <glyph glyph-name="wenti" unicode="&#59182;" d="M942.080856 640.002676a46.544968 46.544968 0 0 0-46.544967-46.544968H243.906337a46.544968 46.544968 0 0 0-46.544968 46.544968 46.544968 46.544968 0 0 0 46.544968 46.544968h651.629552a46.544968 46.544968 0 0 0 46.544967-46.544968zM430.086209 380.281755a46.544968 46.544968 0 0 0-46.544968-46.544968H243.906337a46.544968 46.544968 0 0 0-46.544968 46.544968 46.544968 46.544968 0 0 0 46.544968 46.544968h139.634904a46.544968 46.544968 0 0 0 46.544968-46.544968zM407.744625-127.989295h-186.179872A161.976488 161.976488 0 0 0 57.726466 33.987194v698.174519A161.976488 161.976488 0 0 0 219.702954 896h698.174519a46.544968 46.544968 0 0 0 0-93.089936h-698.174519A68.886553 68.886553 0 0 1 150.816402 734.023512v-698.17452A68.886553 68.886553 0 0 1 219.702954-34.899359h186.179872a46.544968 46.544968 0 0 0 0-93.089936zM690.27258-15.815922a46.544968 46.544968 0 0 0-46.544968 46.544968v100.071681a88.900889 88.900889 0 0 0 69.817452 87.03909 93.089936 93.089936 0 0 1 16.290739 5.119947 112.173373 112.173373 0 1 1-152.202045 104.726177 46.544968 46.544968 0 0 0-93.089936 0 205.728758 205.728758 0 1 0 279.269807-191.765267q-13.498041-5.119946-26.530631-8.378095v-96.813533a46.544968 46.544968 0 0 0-47.010418-46.544968zM690.27258-81.444327m-46.544968 0a46.544968 46.544968 0 1 1 93.089936 0 46.544968 46.544968 0 1 1-93.089936 0Z"  horiz-adv-x="1024" />

    
    <glyph glyph-name="qita" unicode="&#59184;" d="M325.893 421.276H148.83A149.105 149.105 0 0 0 0 570.107V747.17A148.83 148.83 0 0 0 148.83 896h177.063a149.105 149.105 0 0 0 148.83-148.83v-177.063a149.105 149.105 0 0 0-148.83-148.83zM148.83 813.773a66.604 66.604 0 0 1-66.604-66.604v-177.062a66.604 66.604 0 0 1 66.604-66.604h177.062a66.604 66.604 0 0 1 66.604 66.604V747.17a66.604 66.604 0 0 1-66.604 66.604z m726.612-392.497H698.107A148.83 148.83 0 0 0 549.55 570.107V747.17A148.83 148.83 0 0 0 698.107 896h177.336A148.83 148.83 0 0 0 1024 747.17v-177.063a148.83 148.83 0 0 0-148.557-148.83zM698.107 813.773a66.33 66.33 0 0 1-66.33-66.604v-177.062a66.33 66.33 0 0 1 66.33-66.604h177.336a66.33 66.33 0 0 1 66.33 66.604V747.17a66.33 66.33 0 0 1-66.33 66.604zM325.893-128H148.83A148.83 148.83 0 0 0 0 20.557V197.893A148.83 148.83 0 0 0 148.83 346.45h177.063a148.83 148.83 0 0 0 148.83-148.557v-177.336A148.83 148.83 0 0 0 325.894-128zM148.83 264.223a66.33 66.33 0 0 1-66.604-66.33v-177.336a66.604 66.604 0 0 1 66.604-66.33h177.062a66.604 66.604 0 0 1 66.604 66.33V197.893a66.33 66.33 0 0 1-66.604 66.33z m821.996-83.324h-367.83a41.113 41.113 0 0 0 0 82.227h367.83a41.113 41.113 0 0 0 0-82.227z m0-216.805h-367.83a41.113 41.113 0 1 0 0 82.227h367.83a41.113 41.113 0 0 0 0-82.227z"  horiz-adv-x="1024" />

    
    <glyph glyph-name="xiaoshuai" unicode="&#59185;" d="M704.546133-93.866667c-142.9504 0-261.0176 105.301333-281.736533 242.4832h153.361067l57.070933 99.874134 114.107733-242.517334 99.84 142.677334h42.8032a28.535467 28.535467 0 1 1 0 57.0368h-71.338666l-71.304534-85.572267-111.274666 242.4832-88.405334-156.910933h-127.658666c7.4752 150.869333 131.822933 271.018667 284.5696 271.018666a285.2864 285.2864 0 1 0 0-570.5728z m-174.660266 579.345067c-100.283733-59.733333-167.662933-168.8576-167.662934-294.058667 0-14.506667 1.194667-28.740267 2.935467-42.8032H34.133333c0 145.339733 96.017067 270.677333 230.7072 320.580267-50.7904 37.717333-84.992 100.932267-84.992 174.148267C179.848533 762.026667 272.554667 861.866667 389.563733 861.866667c114.7904 0 212.992-99.84 212.992-218.5216 0-63.556267-26.624-119.5008-72.669866-157.866667z"  horiz-adv-x="1024" />

    
    <glyph glyph-name="xiangmu" unicode="&#59357;" d="M556.366952-100.28582a40.068694 40.068694 0 0 0-53.758831-24.24156L25.79066 91.732267a46.479685 46.479685 0 0 0-22.260385 58.700637 40.068694 40.068694 0 0 0 53.758831 24.24156l476.7952-216.370949a46.212561 46.212561 0 0 0 22.282646-58.589335zM482.128566-95.744701a40.202256 40.202256 0 0 1 53.959175-24.24156l462.771157 204.639725a46.412904 46.412904 0 0 1 22.260385 58.700637 40.202256 40.202256 0 0 1-53.959174 24.24156l-462.771157-204.639725a46.412904 46.412904 0 0 1-22.260386-58.700637z m76.353123 188.834851a40.179996 40.179996 0 0 0-53.959175-24.24156l-478.598291 216.259647a46.412904 46.412904 0 0 0-22.260386 58.700637 40.179996 40.179996 0 0 0 53.959175 24.24156l478.598291-216.370949a46.123519 46.123519 0 0 0 22.215865-58.589335zM482.618294 97.453186a38.888894 38.888894 0 0 1 53.959175-27.847743l462.236908 240.167301a56.919806 56.919806 0 0 1 22.260386 67.448969 38.888894 38.888894 0 0 1-53.959175 27.847742L504.90094 164.924415a56.919806 56.919806 0 0 1-22.282646-67.471229z m539.213322 515.350188a48.616682 48.616682 0 0 1-23.017239 30.60803L520.216086 892.059912a35.883742 35.883742 0 0 1-32.633726 0L26.035524 652.42686a48.972848 48.972848 0 0 1-23.952175-33.858046c0-0.267125 0-0.645551-0.200343-0.912676v-0.133562a55.940349 55.940349 0 0 1 23.952175-61.438665l462.147866-254.235864a33.835786 33.835786 0 0 1 32.010435 0.133562l478.598291 245.754658a56.274255 56.274255 0 0 1 23.262103 65.067107z"  horiz-adv-x="1024" />

    
    <glyph glyph-name="neibuguanli-mian" unicode="&#59186;" d="M544 512v-96h288c17.673 0 32-14.327 32-32v-128h96c35.346 0 64-28.654 64-64v-256c0-35.346-28.654-64-64-64H704c-35.346 0-64 28.654-64 64V192c0 35.346 28.654 64 64 64h96v96H224v-96h96c35.346 0 64-28.654 64-64v-256c0-35.346-28.654-64-64-64H64c-35.346 0-64 28.654-64 64V192c0 35.346 28.654 64 64 64h96V384c0 17.673 14.327 32 32 32h288v96h-96c-35.346 0-64 28.654-64 64V832c0 35.346 28.654 64 64 64h256c35.346 0 64-28.654 64-64v-256c0-35.346-28.654-64-64-64h-96z"  horiz-adv-x="1024" />

    
    <glyph glyph-name="zhengce" unicode="&#59187;" d="M88.470521 807.762393v-630.32641a56.046449 56.046449 0 0 1 25.841188-38.430799l426.600266-179.306957c-0.674225 0.674225 2.022674-0.674225 2.022674-0.674225s2.758191 0.674225 2.059449 0.674225l426.453162 179.306957a55.359966 55.359966 0 0 1 25.865706 38.443058V807.762393L566.69187 679.671986l-23.107514-6.742246-23.14429 6.742246zM85.062622 886.634408l457.136509-128.715597L999.347898 886.634408c42.905199 12.136042 79.607532-13.484491 79.607533-58.633019v-649.216957a133.96229 133.96229 0 0 0-75.500892-112.583242L576.229083-114.454216a84.155483 84.155483 0 0 0-34.017693-7.41647 94.097231 94.097231 0 0 0-34.017694 7.41647L81.666982 64.852741A132.6261 132.6261 0 0 0 6.129314 177.435983V827.98913C5.467348 872.438916 41.544491 898.77045 85.062622 886.634408zM311.700142 327.579663l-94.391438-50.150048 18.608598 106.417152-76.481582 75.893168 106.417153 15.605234 46.582787 97.59094 47.207978-97.59094 106.417152-15.605234-77.155806-75.218943 18.608597-106.417153zM688.138101 451.624723l240.771719 81.997965a41.372871 41.372871 0 0 1 25.326326 52.197239 40.527025 40.527025 0 0 1-51.216549 25.74312l-240.771719-81.997965a41.372871 41.372871 0 0 1-25.28955-52.197239 39.975387 39.975387 0 0 1 51.179773-25.74312z m0-163.37074l240.771719 82.022483a41.385129 41.385129 0 0 1 25.326326 52.197239 40.527025 40.527025 0 0 1-51.216549 25.743119l-240.771719-81.997964a41.372871 41.372871 0 0 1-25.28955-52.19724 40.453473 40.453473 0 0 1 51.216549-25.743119z m0-162.635222l240.771719 82.022483a41.336095 41.336095 0 0 1 25.326326 52.160463 40.453473 40.453473 0 0 1-51.216549 25.74312l-240.771719-81.997965a41.372871 41.372871 0 0 1-25.326326-52.160464 39.999904 39.999904 0 0 1 51.216549-25.743119z"  horiz-adv-x="1085" />

    
    <glyph glyph-name="fuwu11" unicode="&#59188;" d="M798.6 258.4c-8 0-15.8 3.8-20.6 11-7.7 11.4-4.7 26.8 6.7 34.5 60.1 40.6 124.9 132.2 124.9 209.2 0 123.4-100.4 223.8-223.7 223.8-58.9 0-114.5-22.9-156.8-64.3-9.7-9.5-25.2-9.5-34.9 0-42.2 41.5-97.8 64.3-156.7 64.3-123.4 0-223.8-100.4-223.8-223.8 0-85.3 47.4-162 123.7-200.2 12.3-6.1 17.2-21.1 11.1-33.4-6.2-12.3-21.1-17.2-33.4-11.1C121.9 315.1 64 408.8 64 513.1c0 150.8 122.7 273.5 273.5 273.5 64.2 0 125.2-22.2 174.1-62.8 49 40.7 110 62.8 174.2 62.8 150.8 0 273.5-122.7 273.5-273.5 0-94.6-74.7-201.7-146.8-250.4-4.1-2.8-8.9-4.3-13.9-4.3zM758.7 173.6c-20.5 0-39.7 8-54.2 22.5l-94.9 94.8c-9.7 9.7-9.7 25.5 0 35.2 9.7 9.7 25.5 9.7 35.2 0l94.9-94.8c10.2-10.2 27.9-10.2 38.1 0 10.5 10.5 10.5 27.6 0 38.1L505.4 534c-9.9 9.6-10.1 25.3-0.5 35.2 9.6 9.8 25.4 10.1 35.2 0.5l272.6-264.9c30.1-30.1 30.1-78.8 0.2-108.7-14.5-14.6-33.7-22.5-54.2-22.5zM694.6 90.4c-19.6 0-39.2 7.5-54.2 22.4L592 161.4c-9.7 9.7-9.7 25.5 0 35.2 9.7 9.7 25.5 9.7 35.2 0l48.5-48.5c10.5-10.5 27.6-10.5 38.1 0 5.1 5.1 7.9 11.9 7.9 19 0 7.2-2.8 14-7.9 19L585.1 314.8c-9.7 9.7-9.7 25.5 0 35.2 9.7 9.7 25.5 9.7 35.2 0l128.6-128.7c14.5-14.5 22.5-33.7 22.5-54.2s-8-39.7-22.5-54.2c-15-15-34.6-22.5-54.3-22.5zM269.4 201.7c-20.4 0-39.7 8-54.2 22.4-29.9 29.9-29.9 78.5 0 108.4l81.7 81.7c29.1 29 79.5 28.9 108.4 0 14.5-14.5 22.5-33.7 22.5-54.2s-8-39.7-22.5-54.2l-81.7-81.7c-14.5-14.5-33.7-22.4-54.2-22.4zM351.1 387c-7.2 0-13.9-2.8-19-7.9l-81.7-81.7c-10.5-10.5-10.5-27.6 0-38.1 10.2-10.2 27.9-10.2 38.1 0l81.7 81.7c5.1 5.1 7.9 11.9 7.9 19s-2.8 13.9-7.9 19c-5.2 5.2-11.9 8-19.1 8zM342.6 128.4c-20.5 0-39.7 8-54.2 22.4-29.9 29.9-29.9 78.5 0 108.4l81.7 81.7c29.1 29 79.5 28.9 108.5 0 29.9-29.9 29.9-78.5 0-108.4l-81.8-81.7c-14.4-14.4-33.7-22.4-54.2-22.4z m81.7 185.3c-7.2 0-13.9-2.8-19-7.9l-81.7-81.7c-10.5-10.5-10.5-27.6 0-38.1 10.2-10.2 27.9-10.2 38.1 0l81.8 81.7c10.5 10.5 10.5 27.6 0 38.1-5.2 5.1-11.9 7.9-19.2 7.9zM415.9 55.1c-20.4 0-39.7 8-54.2 22.4-29.9 29.9-29.9 78.6 0 108.5l81.8 81.7c28.9 28.9 79.3 29 108.4 0 29.9-29.9 29.9-78.5 0-108.4l-81.8-81.7c-14.5-14.5-33.7-22.5-54.2-22.5z m81.7 185.4c-7.2 0-13.9-2.8-19-7.9l-81.8-81.7c-10.5-10.5-10.5-27.6 0-38.1 10.2-10.2 27.9-10.2 38.1 0l81.8 81.7c10.5 10.5 10.5 27.6 0 38.1-5.1 5-11.9 7.9-19.1 7.9zM489.1-18.1c-20.5 0-39.7 8-54.2 22.4-29.9 29.9-29.9 78.5 0 108.4l81.8 81.7c28.9 28.9 79.4 29 108.4 0 29.9-29.9 29.9-78.6 0-108.4l-81.7-81.7c-14.5-14.5-33.8-22.4-54.3-22.4z m81.8 185.3c-7.2 0-13.9-2.8-19-7.9l-81.8-81.7c-10.5-10.5-10.5-27.6 0-38.1 10.2-10.2 27.9-10.1 38.1 0l81.7 81.7c10.5 10.5 10.5 27.6 0 38.1-5.1 5.1-11.8 7.9-19 7.9zM395.7 433.8c-20.5 0-39.7 8-54.2 22.4-29.9 29.9-29.9 78.5 0 108.4l153.2 143.7c10 9.4 25.7 8.9 35.1-1.1 9.4-10 8.9-25.8-1.1-35.2L376 529c-9.9-9.9-9.9-27 0.6-37.5 10.2-10.2 27.9-10.2 38.1 0l91.9 79.2c10.4 8.9 26.1 7.8 35.1-2.6 8.9-10.4 7.8-26.1-2.6-35.1l-90.6-78c-13.1-13.2-32.3-21.2-52.8-21.2z"  horiz-adv-x="1024" />

    
    <glyph glyph-name="xiajiang1" unicode="&#59179;" d="M512.02455893 846.89023893c255.44014933 0 462.50383893-207.25361493 462.50383894-462.89569707 0-255.65627093-207.0636896-462.88587307-462.50383894-462.88587306s-462.5518656 207.22960212-462.5518656 462.88587307C49.47269333 639.636624 256.5833184 846.89023893 512.02455893 846.89023893zM347.676672 273.99376533l140.6104576-141.1114688c3.0922944-4.58986987 7.56427947-8.3949312 13.34391253-10.4175296 3.0682816-1.21377707 6.34941013-1.75954134 9.72768534-1.68749973 0.2368608 0 0.4278784-0.12006827 0.6647392-0.12006827 0.3089024 0 0.57086827 0.14189867 0.90378454 0.16700374 3.23528534-0.04693547 6.42254293 0.45189227 9.41878292 1.6165504 5.87459626 2.04661227 10.44045227 5.89751787 13.50873387 10.6085472L676.3244192 273.99376533c9.8935968 9.91761067 9.1328032 26.73257813-1.66457813 37.52995947-10.84650027 10.8224864-27.16154773 11.10737493-37.0551456 1.188672-0.78589866-0.78480747-1.56961493-1.33166293-2.21143253-2.21143253l-95.73015894-95.42016534-0.26196587 425.74558827c0.16591253 0.99874667 0 1.9025312 0 2.94821333 0 13.1758176-11.72517867 23.83239253-27.04257173 23.83239254-15.26827412 0-27.7084032-10.65657387-27.7084032-23.83239254l-0.3089024-428.71890773-95.7563552 95.44417813c-0.63963413 0.88086187-1.42444267 1.42662507-2.18632747 2.21143254-9.91761067 9.91761067-26.2348416 9.63272213-37.0562368-1.188672C338.5438688 300.72634346999996 337.75797013 283.911376 347.676672 273.99376533z"  horiz-adv-x="1024" />

    
    <glyph glyph-name="bohao" unicode="&#59177;" d="M512 896c282.763636 0 512-229.236364 512-512s-229.236364-512-512-512S0 101.236364 0 384 229.236364 896 512 896z m-96.186182-244.130909c-20.386909 3.444364-37.794909-2.792727-63.418182-18.804364l-13.777454-8.866909-7.517091-4.747636c-56.925091-35.188364-32.884364-180.107636 59.950545-316.020364 92.578909-135.563636 221.323636-214.900364 277.504-180.247273l19.013819 11.217455c24.133818 14.405818 37.701818 26.065455 44.730181 42.938182 9.448727 22.597818 2.210909 47.988364-22.272 76.590545-39.563636 46.219636-69.445818 57.111273-103.354181 41.681455-3.630545-1.629091-7.237818-3.514182-11.287273-5.864727l-11.403637-6.935273-7.749818-4.817455c-5.538909-3.397818-16.523636 2.653091-31.115636 16.663273l-6.004364 6.050909c-2.094545 2.141091-4.189091 4.421818-6.376727 6.865455l-6.725818 7.68-6.981818 8.448a503.854545 503.854545 0 0 0-3.630546 4.538181l-7.424 9.611637-7.656727 10.356363a718.033455 718.033455 0 0 0-3.886546 5.445819l-7.982545 11.403636-3.886545 5.794909-7.377455 11.170909-6.749091 10.752-6.167273 10.24-5.562181 9.681455-4.933819 9.122909a319.627636 319.627636 0 0 0-4.305454 8.541091l-3.653818 7.912727a199.982545 199.982545 0 0 0-1.629091 3.700364l-2.676364 6.888727c-5.166545 14.196364-5.748364 23.365818-1.373091 26.065454l14.964364 9.169455c42.589091 26.810182 49.873455 56.32 16.779636 118.481455-15.709091 29.393455-34.257455 45.544727-56.087273 49.268363z"  horiz-adv-x="1024" />

    
    <glyph glyph-name="gouwuche" unicode="&#59176;" d="M806.65192474 768.02717432H402.97041595a37.19718281 37.19718281 0 0 1 0-74.39436651h400.46511884c21.61856074 0 43.23712148-4.22304609 62.13034424-14.63334697 47.4847207-26.29583086 71.34984404-77.13198105 63.83675039-127.23155332l-40.51178349-273.06169717A124.27296503 124.27296503 0 0 0 765.85778646 172.8476918H412.90194143a123.99061026 123.99061026 0 0 0-122.76298125 105.64982138c-9.10901338 60.77995136-38.05652373 401.53315693-62.89147441 476.43085108C206.58647581 816.87456445 150.41013606 833.7421974599999 103.67426898 833.98772344A35.79768545 35.79768545 0 0 1 67.33642708 798.71791963a36.25190859 36.25190859 0 0 1 1.04348496-9.12128994l0.74885449-2.45525977a36.32556621 36.32556621 0 0 1 35.79768545-27.31476269c19.88760322 0 43.99825253-5.19287432 51.7077668-28.23548555 15.9591876-47.36195771 59.8960582-463.76171192 59.8960582-463.76171191a197.99213467 197.99213467 0 0 1 196.42076895-169.41291329H765.85778646a198.60594961 198.60594961 0 0 1 196.65401835 169.11828194l40.5117835 273.06169804c17.89884229 119.79211641-75.0695625 227.43069786-196.42076894 227.43069786zM789.18275247 452.34216972q0-37.19718281-37.283117-37.1971828H421.77770452q-37.283117 0-37.28311699 37.19718281t37.28311699 37.23401162h330.36745694c24.55259589 0 37.03759102-12.39906094 37.03759101-37.19718281M422.0232305-65.99996308000004a62.06896318 62.06896318 0 1 0 43.91231836 18.13209258 62.08123887 62.08123887 0 0 0-43.91231836-18.13209258zM787.68504437-65.99996308000004a62.08123887 62.08123887 0 1 0 0.14731523 0z"  horiz-adv-x="1067" />

    
    <glyph glyph-name="gantanhao" unicode="&#59175;" d="M512 777.599c-217.387 0-393.599-176.211-393.599-393.598 0-217.364 176.211-393.599 393.598-393.599 217.364 0 393.599 176.235 393.599 393.599 0.001 217.387-176.234 393.598-393.598 393.598z m65.919-547.252c-31.76-46.558-64.094-82.497-118.507-82.497-37.118 5.91-52.371 31.903-44.323 58.375l69.981 226.349c1.682 5.549-1.153 11.458-6.318 13.237-5.166 1.778-15.278-4.78-24.047-14.126l-42.282-49.703c-1.153 8.311-0.119 22.148-0.119 27.698 31.783 46.581 83.985 83.361 119.396 83.361 33.68-3.364 49.584-29.645 43.722-58.521l-70.46-227.479c-0.961-5.14 1.825-10.329 6.606-11.962 5.189-1.779 16.071 4.756 24.816 14.125l42.306 49.679c1.154-8.311-0.768-22.965-0.768-28.538z m-9.416 295.679c-26.763 0-48.457 19.002-48.457 47.062s21.693 47.061 48.457 47.061 48.431-19.002 48.431-47.061-21.669-47.062-48.431-47.062zM512 777.599c-217.387 0-393.599-176.211-393.599-393.598 0-217.364 176.211-393.599 393.598-393.599 217.364 0 393.599 176.235 393.599 393.599 0.001 217.387-176.234 393.598-393.598 393.598z m65.919-547.252c-31.76-46.558-64.094-82.497-118.507-82.497-37.118 5.91-52.371 31.903-44.323 58.375l69.981 226.349c1.682 5.549-1.153 11.458-6.318 13.237-5.166 1.778-15.278-4.78-24.047-14.126l-42.282-49.703c-1.153 8.311-0.119 22.148-0.119 27.698 31.783 46.581 83.985 83.361 119.396 83.361 33.68-3.364 49.584-29.645 43.722-58.521l-70.46-227.479c-0.961-5.14 1.825-10.329 6.606-11.962 5.189-1.779 16.071 4.756 24.816 14.125l42.306 49.679c1.154-8.311-0.768-22.965-0.768-28.538z m-9.416 295.679c-26.763 0-48.457 19.002-48.457 47.062s21.693 47.061 48.457 47.061 48.431-19.002 48.431-47.061-21.669-47.062-48.431-47.062z"  horiz-adv-x="1024" />

    
    <glyph glyph-name="jiantou" unicode="&#59173;" d="M979.796 364.952l-942.568 0c-12.21700001 0-22.12 9.902-22.12 22.12 0 12.22300001 9.902 22.12 22.12 22.12l889.192 0-192.116 192.076c0 0-6.672 15.861 8.084 26.784 13.303 9.848 28.31-0.635 28.31-0.63499999l224.74-224.69800001c6.311-6.342 8.206-15.84 4.782-24.112-3.417-8.239-11.489-13.654-20.424-13.654v0zM979.796 364.952z"  horiz-adv-x="1024" />

    
    <glyph glyph-name="dayin" unicode="&#59172;" d="M313.69216 226.28864h391.97184v-78.85824H313.69216v78.85824z m0-115.968h276.00384v-78.85824H313.69216v78.85824z m616.94976 473.14432h-64.94208V803.80416c0 51.0208-41.74848 90.45504-90.46016 90.45504H248.74496c-51.01568 0-90.45504-41.74336-90.45504-90.45504v-220.3392H93.35296C42.32704 583.46496 2.89792 541.71648 2.89792 493.01504v-292.24448c0-51.03104 41.74336-90.44992 90.45504-90.44992h64.94208v-146.12992c0-51.0208 41.74336-90.44992 90.45504-90.44992h526.49472c51.03104 0 90.46016 41.74848 90.46016 90.44992v146.12992h64.94208c51.03104 0 90.46016 41.73824 90.46016 90.44992V493.01504c-0.00512 48.70144-41.76384 90.44992-90.46528 90.44992zM234.83904 778.2912c0 20.87424 16.23552 39.42912 39.42912 39.42912h470.82496c20.87936 0 39.42912-16.23552 39.42912-39.42912v-194.82624H237.14816V778.2912h-2.30912z m549.6832-786.26304c0-20.86912-16.23552-39.42912-39.42912-39.42912H271.9488c-20.87424 0-39.43424 16.2304-39.43424 39.42912v313.10848h549.69344v-313.10848h2.31424zM844.8256 384c-32.47616 0-57.984 25.50784-57.984 57.97888s25.50784 57.98912 57.984 57.98912 57.97888-25.51296 57.97888-57.98912c0-32.47104-25.50272-57.97888-57.97888-57.97888z m0 0"  horiz-adv-x="1024" />

    
    <glyph glyph-name="question" unicode="&#59171;" d="M428.957 712.281c-111.357 0-161.819-66.476-161.819-161.819h53.938c1.79 67.638 45.829 106.195 107.881 107.881 54.467-1.686 78.486-31.395 80.386-81.648 0-26.024-18.752-56.362-56.362-91.024-43.3-38.138-50.99-65.843-50.99-97.029v-53.938h53.938v53.933c0 17.276 9.271 40.667 39.4 68.371 45.090 39.929 67.638 79.752 67.638 119.681 0 79.757-47.514 135.59-134.010 135.59zM401.991 226.819h53.938v53.943h-53.938v-53.943zM860.481 399.071v373.471c0 0-10.114 74.695-80.91 74.695s-755.162 0-755.162 0v-771.81c0 0 10.114-62.79 107.881-64.267 97.767-1.476 296.671 0 296.671 0-11.695-1.581 431.519 387.91 431.519 387.91zM401.991 65c0 0-249.581 0.738-269.7 0-62.367-2.424-53.938 60.157-53.938 60.157v672.143c0 0 665.824 0 701.224 0s26.971-29.605 26.971-49.833v-323.643l-404.557-358.824zM978.791 247.467l-93.762 87.443-16.648 15.381-16.538-15.381-333.229-310.681-1.371-6.429-34.343-141.486 162.767 29.495 5.057 4.633 344.819 321.533-16.752 15.49zM622.386-53.838l-75.748-14.119 15.067 70.69 236.305 220.29 60.576-56.576-236.2-220.286zM891.876 197.424l-60.576 56.576 37.19 34.662 60.681-56.576-37.295-34.662z"  horiz-adv-x="1024" />

    
    <glyph glyph-name="3" unicode="&#59170;" d="M512 145.490683c-19.080745 0-31.801242 12.720497-31.801242 31.801242L480.198758 463.503106c0 19.080745 12.720497 31.801242 31.801242 31.801242s31.801242-12.720497 31.801242-31.801242l0-286.21118C537.440994 158.21118 524.720497 145.490683 512 145.490683zM651.925466 361.73913000000005L365.714286 361.73913000000005c-19.080745 0-31.801242 12.720497-31.801242 31.801242 0 19.080745 12.720497 31.801242 31.801242 31.801242l286.21118 0c19.080745 0 31.801242-12.720497 31.801242-31.801242C683.726708 374.45962699999995 671.006211 361.73913000000005 651.925466 361.73913000000005zM651.925466 247.25465799999995L365.714286 247.25465799999995c-19.080745 0-31.801242 12.720497-31.801242 31.801242 0 19.080745 12.720497 31.801242 31.801242 31.801242l286.21118 0c19.080745 0 31.801242-12.720497 31.801242-31.801242C683.726708 259.975155 671.006211 247.25465799999995 651.925466 247.25465799999995zM512 431.701863c-6.360248 0-19.080745 0-25.440994 6.360248L352.993789 571.6273289999999c-12.720497 12.720497-12.720497 31.801242 0 44.521739 12.720497 12.720497 31.801242 12.720497 44.521739 0l133.565217-133.565217c12.720497-12.720497 12.720497-31.801242 0-44.521739C524.720497 431.701863 518.360248 431.701863 512 431.701863zM512 431.701863c-6.360248 0-19.080745 0-25.440994 6.360248-12.720497 12.720497-12.720497 31.801242 0 44.521739l133.565217 133.565217c12.720497 12.720497 31.801242 12.720497 44.521739 0 12.720497-12.720497 12.720497-31.801242 0-44.521739L531.080745 438.062112C524.720497 431.701863 518.360248 431.701863 512 431.701863zM512-121.63975200000004c-279.850932 0-508.819876 228.968944-508.819876 508.819876s228.968944 508.819876 508.819876 508.819876 508.819876-228.968944 508.819876-508.819876c0-25.440994 0-50.881988-6.360248-82.68323 0-19.080745-19.080745-31.801242-38.161491-25.440994-19.080745 0-31.801242 19.080745-25.440994 38.161491 6.360248 25.440994 6.360248 44.521739 6.360248 69.962733 0 248.049689-197.167702 445.217391-445.217391 445.217391S66.782609 628.869565 66.782609 380.819876s197.167702-445.217391 445.217391-445.217391c25.440994 0 57.242236 0 82.68323 6.360248 19.080745 6.360248 31.801242-6.360248 38.161491-25.440994 6.360248-19.080745-6.360248-31.801242-25.440994-38.161491C575.602484-121.63975200000004 543.801242-121.63975200000004 512-121.63975200000004zM989.018634 31.006211000000008l-318.012422 0c-19.080745 0-31.801242 12.720497-31.801242 31.801242s12.720497 31.801242 31.801242 31.801242l318.012422 0c19.080745 0 31.801242-12.720497 31.801242-31.801242S1001.73913 31.006211000000008 989.018634 31.006211000000008zM830.012422-128c-19.080745 0-31.801242 12.720497-31.801242 31.801242l0 318.012422c0 19.080745 12.720497 31.801242 31.801242 31.801242s31.801242-12.720497 31.801242-31.801242l0-318.012422C861.813665-108.91925500000002 842.732919-128 830.012422-128z"  horiz-adv-x="1024" />

    
    <glyph glyph-name="shipin1" unicode="&#59169;" d="M459.662222 599.04L352.711111 720.782222H233.244444l106.951112-121.742222h119.466666z m312.888889 0l-106.951111 121.742222H544.995556l106.951111-121.742222h120.604444z m-157.013333 0l-106.951111 121.742222H389.12l106.951111-121.742222h119.466667z m202.524444 121.742222H702.008889l106.951111-121.742222H864.711111v76.231111c0 25.031111-20.48 45.511111-46.648889 45.511111z m-621.226666 0h-4.551112c-26.168889 0-46.648889-19.342222-46.648888-45.511111v-76.231111h158.151111l-106.951111 121.742222z m-51.2-625.777778c0-26.168889 20.48-45.511111 46.648888-45.511111h625.777778c26.168889 0 46.648889 19.342222 46.648889 45.511111V568.32H145.635556v-473.315556z m250.311111 335.644445c0 26.168889 21.617778 38.684444 46.648889 38.684444 7.964444 0 17.066667-1.137778 25.031111-5.688889l178.631111-101.262222c31.857778-17.066667 31.857778-59.164444 0-76.231111l-178.631111-101.262222c-7.964444-4.551111-15.928889-5.688889-25.031111-5.688889-25.031111 0-46.648889 12.515556-46.648889 38.684444V430.648889z m0 0"  horiz-adv-x="1024" />

    
    <glyph glyph-name="twitter" unicode="&#59168;" d="M923.2 606.4c0-354.4-232.8-609.6-575.2-620.8-144.8-11.2-244 32.8-332.8 99.2 99.2-11.2 232.8 21.6 298.4 88.8-99.2 0-155.2 56-188 132h88.8C125.6 339.20000000000005 58.4 405.6 58.4 516c21.6-11.2 44-21.6 88.8-21.6-77.6 44-121.6 188-66.4 276.8 99.2-110.4 220.8-210.4 421.6-220.8-56 220.8 232.8 332.8 354.4 188 56 11.2 88.8 32.8 132 56-11.2-56-44-88.8-88.8-110.4 44 0 77.6 11.2 110.4 32.8-10.4-44-54.4-88.8-87.2-110.4z"  horiz-adv-x="1024" />

    
    <glyph glyph-name="quanqiu" unicode="&#59167;" d="M512 895.99797C236.299555 895.99797 11.819006 675.428414 0.00203 403.70196V384A510.973972 510.973972 0 0 1 512-127.99797 510.973972 510.973972 0 0 1 1023.99797 384 510.973972 510.973972 0 0 1 512 895.99797z m385.964224-543.495907c-7.863984-23.633952-23.633952-39.403921-39.382921-47.267905-19.67996-7.884984-43.314913 3.931992-43.314913 3.931993h-3.951992c-39.382921 11.816976-31.498937 98.467802-27.565945 126.033746 0 7.884984 0 11.816976-3.932992 19.70196-3.931992 7.863984-11.816976 7.863984-15.769968 7.863985-47.245905-3.931992-59.062881 59.084881-59.062881 59.084881-3.931992 94.51481 145.714707 145.714707 173.300651 153.599691 39.382921-47.267905 66.949865-106.352786 82.697834-165.416668-70.880857-39.382921-63.016873-133.918731-63.016873-157.531683zM43.337943 376.115016c51.199897-7.863984 106.331786-19.68096 118.148762-31.497937 3.931992-3.931992 7.863984-3.931992 11.815976-3.931992 3.932992 0 98.447802-11.816976 141.782715 47.246905 0 3.952992 3.931992 3.952992 3.931992 7.884984 3.931992 7.884984 7.884984 19.68096 7.884984 23.633953 0 0 7.863984 0 27.565945-27.565945 7.863984-15.769968 39.382921-31.518937 78.765841-11.816976 3.931992 0 15.769968 0 23.633953-7.884984 11.816976-11.816976 23.633952-31.497937 23.633952-59.084881 0-7.863984 3.931992-11.795976 7.863985-15.748969 3.931992-3.931992 11.816976-3.931992 19.70196-3.931992 0 0 51.199897 15.769968 82.697834-7.884984 11.816976-7.863984 19.70196-19.67996 23.633952-39.382921-3.931992-7.863984-19.70196-19.67996-78.765842-19.67996h-7.884984c-31.497937-11.817976-86.629826-55.152889-74.833849-133.919731-3.931992-11.815976-19.67996-47.246905-59.063881-43.313913l-196.934604-7.884984h-7.863984C106.333816 120.116531 47.269935 242.217285 43.316943 376.115016zM512-84.683057c-98.467802 0-189.02962 31.518937-263.883469 82.718833l153.599691 3.931993c63.015873-3.931992 94.53481 51.199897 102.399794 82.717833v7.864984c-11.817976 59.083881 31.517937 86.649826 43.334913 90.582818 47.246905 0 82.697834 7.883984 102.399794 27.565945 15.748968 15.769968 15.748968 31.517937 15.748968 35.449928v3.952992c-7.884984 31.497937-19.70196 55.131889-47.267905 70.880858-31.497937 19.70196-70.880857 19.70196-94.51481 15.769968-7.884984 27.544945-19.70196 51.199897-39.382921 66.948865-27.565945 23.612952-55.131889 19.68096-59.084881 19.680961-3.931992 0-7.863984 0-7.863984-3.931992-15.769968-7.884984-23.633952-7.884984-27.586944-3.952992-7.863984 7.884984-35.429929 51.199897-70.879858 43.335912-27.566945-3.931992-39.383921-35.429929-43.315913-51.199897-23.633952-31.518937-78.785842-27.565945-94.534809-27.565944-27.565945 19.68096-98.467802 31.497937-137.829723 35.429929C62.977903 659.700445 263.865499 852.683057 512 852.683057c133.897731 0 252.066493-55.152889 338.697319-145.735707-59.064881-19.67996-192.982612-78.764842-185.097628-192.981611 3.931992-31.497937 27.565945-82.697834 78.765842-94.51481-3.932992-43.335913-3.932992-129.965739 59.083881-153.599691 7.864984-3.952992 23.633952-7.884984 43.314913-7.884984 11.816976 0 19.70196 0 31.519936 7.884984 27.564945 11.816976 51.198897 39.382921 63.015873 78.765841v11.816976s-11.816976 78.765842 31.497937 110.263779c3.931992-23.612952 7.884984-51.199897 7.884984-78.765842 0-263.863469-208.75158-472.615049-468.683057-472.615049zM567.131889 738.466287c-19.68096 15.749968-35.429929 23.633952-35.429929 23.633952-3.952992 0-7.884984 3.931992-7.884984 0-19.70196 0-35.429929-7.884984-47.267905-23.633952-23.633952-27.565945-23.633952-74.833849-19.68096-98.467802-19.70196-23.632952-27.565945-47.266905-23.633953-70.900857 3.931992-35.429929 31.497937-55.131889 31.497937-59.063882 3.952992-3.931992 7.884984-3.931992 11.816976-3.931992h15.769969c59.063881 0 102.399794 35.429929 118.148762 94.51481 3.931992 15.769968 0 39.381921 0 55.131889-3.952992 31.517937-31.518937 74.832849-43.335913 82.717834z m3.952992-118.169762c-11.816976-43.313913-39.382921-66.947865-82.718833-62.995874-3.931992 3.932992-11.816976 11.796976-11.816977 23.613953s3.952992 27.585945 19.701961 43.334913c3.931992 3.932992 7.863984 11.816976 3.931992 15.749968-3.931992 15.769968-3.931992 59.083881 7.884984 74.832849l7.863984 7.864985c3.952992-3.932992 11.816976-7.864984 19.70196-15.749969 3.931992-7.863984 27.565945-39.381921 27.565945-51.199897 7.884984-19.67996 7.884984-31.497937 7.884984-35.429928z"  horiz-adv-x="1024" />

    
    <glyph glyph-name="Facebook" unicode="&#59166;" d="M589.572 815.69c-27.149 0-52.789-3.018-82.955-15.084-61.839-25.639-92.003-82.955-92.003-174.957v-88.987h-85.969v-147.808h85.969v-426.833h174.957V388.854h119.152l16.59 147.808H589.569v66.363c0 21.115 1.508 36.197 7.54 43.741 7.54 13.573 22.624 19.607 46.755 19.607h79.937V814.181H589.566z"  horiz-adv-x="1024" />

    
    <glyph glyph-name="quanqiuzhigongb" unicode="&#59161;" d="M275.726785 20.401024c28.308743-24.142863 59.924811-43.691081 94.336552-58.245566 35.421744-14.982226 72.579015-24.12035 110.813828-27.335578-48.624441 48.709375-87.691201 98.069573-117.090788 147.905608C318.339302 59.071765 287.094694 31.289002 275.726785 20.401024zM661.049664 85.311383c-29.581736-50.735521-69.170382-100.982926-118.664633-150.555971 38.494733 3.158946 75.901691 12.320607 111.551632 27.399023 35.922141 15.193027 68.800969 35.824927 98.048083 61.449537l-6.144954 5.777587C718.007911 52.22994 689.687912 70.901185 661.049664 85.311383zM876.455619 287.208673 725.642798 287.208673c-3.690042-60.259432-21.13332-120.188336-52.184523-179.492 29.862121-15.119349 59.310827-34.551934 88.179318-58.204633l-0.348947 0.295735 0.348947-0.295735c1.346671-1.103124 2.693342-2.204202 4.036943-3.326768l-0.045025-0.054235 5.423523-4.591575c32.894178 33.203216 58.776661 71.759347 76.915787 114.647133C865.577874 197.819806 875.133507 241.847555 876.455619 287.208673zM404.5375 597.66033c19.614733 24.966625 38.890752 45.558615 55.05592 61.353346-30.754444-4.417613-60.71685-12.734022-89.530083-24.920576-31.642674-13.383822-60.920488-30.994921-87.439468-52.509934 13.20986-12.019755 39.272445-33.619702 75.060533-53.231365C371.195114 551.970732 386.858862 575.157827 404.5375 597.66033zM297.683866 287.208673 147.544381 287.208673c1.322112-45.36214 10.877745-89.388866 28.486798-131.022079 18.3663-43.421952 44.655036-82.415035 78.136591-115.89659 0.86674-0.86674 1.753947-1.708921 2.62785-2.566452 11.605316 11.359722 44.833091 41.540092 94.458325 67.38676C319.341119 165.265366 301.42712 226.06715 297.683866 287.208673zM386.978589 93.805848c28.078499-47.192835 65.294099-94.074585 111.556749-140.479475L498.535337 121.044212c-28.706809-1.622964-57.431014-7.364735-85.913718-17.213034C403.731134 100.757167 395.178341 97.382303 386.978589 93.805848zM374.345873 116.228533c9.201569 4.071735 18.850323 7.92039 28.921703 11.435447 31.547507 11.007705 63.405075 17.34504 95.26776 19.003819L498.535337 287.208673 323.339176 287.208673C327.110059 229.995623 344.157317 172.907417 374.345873 116.228533zM847.968821 440.060943c-18.365276 43.421952-44.654013 82.415035-78.135568 115.89659-0.145309 0.145309-0.294712 0.285502-0.440022 0.430812-0.912789-0.030699-1.798972-0.062422-2.651386-0.095167-27.91477-23.237237-56.386218-42.540885-85.261872-57.82908 2.362814-4.844332 4.634554-9.702989 6.814196-14.57188 21.928429-48.989761 34.519188-99.265818 37.426401-149.432381 0.418532-7.226588 0.630357-14.450107 0.653893-21.668509l149.941987 0C874.589109 356.828286 865.091804 399.576903 847.968821 440.060943zM297.605072 334.46086c2.907213 50.166563 15.498996 100.44262 37.426401 149.432381 2.589988 5.785773 5.326309 11.55415 8.17417 17.304108-40.977273 22.332634-69.965491 47.02399-83.755566 59.919694-1.77339-1.703805-3.540639-3.416819-5.28333-5.15951-33.481556-33.481556-59.770292-72.474638-78.136591-115.89659-17.122983-40.48404-26.619264-83.232656-28.347628-127.269615l149.268652 0C296.974715 320.010753 297.18654 327.233248 297.605072 334.46086zM563.743478 117.612043c-12.947893 2.109034-25.940812 3.358491-38.95215 3.764744l0-168.049391c47.00864 47.15395 84.665285 94.801133 112.89728 142.765541C613.20089 106.375118 588.517721 113.5751 563.743478 117.612043zM650.223085 118.572928c29.414937 55.908334 46.044686 112.210641 49.76338 168.635745L524.791327 287.208673l0-140.234905c14.160511-0.408299 28.305673-1.737574 42.407855-4.00522C595.093487 138.48135 622.810758 130.322529 650.223085 118.572928zM700.193173 332.770358c-2.693342 46.944172-14.47262 94.094028-35.010375 140.136667-2.130524 4.77577-4.359284 9.541307-6.677073 14.294564-29.970592-13.56597-60.324924-22.861684-90.90029-27.779693-14.238282-2.290159-28.520567-3.622504-42.815131-4.03285l0-142.596695 175.99741 0C700.766224 319.449981 700.574866 326.109658 700.193173 332.770358zM618.788142 597.66033c18.355043-23.363104 34.533514-47.464011 48.38908-72.02029 26.355251 13.957897 52.432163 31.562856 78.097706 52.741201-27.538193 22.979364-58.138118 41.669028-91.338265 55.711859-29.057803 12.289907-59.285245 20.640086-90.313935 25.028023C579.810409 643.31309 599.13043 622.68426 618.788142 597.66033zM424.14814 581.210683c-16.413831-20.954241-30.979572-42.499953-43.590797-64.412009 10.42135-4.824889 21.465894-9.350972 33.086559-13.361309 28.146037-9.713222 56.528458-15.385409 84.891436-17.004279L498.535337 660.197642C480.772788 644.558453 452.609355 617.54317 424.14814 581.210683zM644.152832 514.405161c-12.921287 22.737864-27.961842 45.087894-44.974307 66.805522-28.461215 36.332487-56.625672 63.34777-74.387197 78.986959l0-174.098153c12.916171 0.406253 25.811876 1.64957 38.662555 3.748371C590.500888 494.265472 617.447611 502.479551 644.152832 514.405161zM366.038674 489.656501c-2.75474-5.567809-5.39794-11.150968-7.895831-16.750499-20.537755-46.042639-32.317033-93.191472-35.010375-140.136667-0.381693-6.6607-0.573051-13.320377-0.595564-19.978007l175.99741 0L498.534314 455.692968c-32.148188 1.659803-64.285119 8.03807-96.110965 19.142989C389.598252 479.311899 377.454678 484.329169 366.038674 489.656501z"  horiz-adv-x="1024" />

    
    <glyph glyph-name="tian7_facebook" unicode="&#59162;" d="M503.149 852.515c-265.206 0-479.885-214.685-479.885-479.885s214.685-479.885 479.885-479.885c265.206 0 479.885 214.685 479.885 479.885 0 265.206-214.685 479.885-479.885 479.885zM631.931 375.149h-83.312v-300.556h-123.76v300.556h-63.151v103.536h63.151v63.151c0 83.312 35.363 133.841 133.841 133.841h83.312v-103.536h-50.525c-37.866 0-40.39-15.168-40.39-40.39v-50.525h93.426l-12.622-106.081z"  horiz-adv-x="1024" />

    
    <glyph glyph-name="in" unicode="&#59164;" d="M751.104 514.048c-90.112 0-150.016-45.056-175.104-88.064h-2.56V500.736H396.288v-545.792h184.832v269.824c0 71.168 14.848 140.288 111.104 140.288 94.72 0 96.256-81.408 96.256-144.896v-265.216h184.32v299.52c0 146.944-34.816 259.584-221.696 259.584zM89.6-45.056h153.6V514.56h-153.6v-559.616z m76.8 858.112C102.912 813.056 51.2 762.88 51.2 700.928 51.2 638.976 102.912 588.8 166.4 588.8S281.6 638.976 281.6 700.928C281.6 762.88 229.888 813.056 166.4 813.056z"  horiz-adv-x="1024" />

    
    <glyph glyph-name="ins" unicode="&#59165;" d="M506.922667 875.733333c-132.181333 0-148.778667-0.597333-200.661334-2.986666C254.464 870.4 219.093333 862.250667 188.16 850.218667a238.293333 238.293333 0 0 1-86.186667-56.106667 238.848 238.848 0 0 1-56.149333-86.186667c-12.074667-30.976-20.266667-66.346667-22.613333-118.101333C20.906667 537.856 20.266667 521.258667 20.266667 389.12c0-132.181333 0.597333-148.693333 2.986666-200.618667 2.346667-51.797333 10.538667-87.168 22.570667-118.101333 12.202667-32.426667 31.36-61.866667 56.106667-86.186667 24.32-24.746667 53.717333-43.946667 86.186666-56.149333 30.976-12.032 66.346667-20.266667 118.101334-22.613333 51.925333-2.389333 68.48-2.944 200.618666-2.944 132.181333 0 148.736 0.554667 200.661334 2.986666 51.797333 2.304 87.168 10.538667 118.144 22.570667a238.08 238.08 0 0 1 86.144 56.149333 238.848 238.848 0 0 1 56.149333 86.186667c11.946667 30.976 20.181333 66.304 22.613333 118.101333 2.346667 51.925333 2.944 68.437333 2.944 200.618667 0 132.138667-0.597333 148.736-2.986666 200.661333-2.389333 51.797333-10.624 87.125333-22.570667 118.101334a238.805333 238.805333 0 0 1-56.149333 86.186666 237.824 237.824 0 0 1-86.186667 56.106667C794.581333 862.208 759.210667 870.4 707.413333 872.789333 655.488 875.093333 638.976 875.733333 506.794667 875.733333h0.128zM463.274667 788.053333h43.648c129.92 0 145.322667-0.469333 196.608-2.816 47.445333-2.133333 73.216-10.112 90.368-16.768 21.12-7.808 40.234667-20.224 55.936-36.394666 17.066667-17.066667 27.562667-33.28 36.394666-55.978667 6.656-17.109333 14.592-42.88 16.768-90.325333 2.346667-51.285333 2.858667-66.688 2.858667-196.565334 0-129.834667-0.512-145.237333-2.858667-196.565333-2.133333-47.445333-10.112-73.173333-16.768-90.325333a150.485333 150.485333 0 0 0-36.394666-55.893334c-15.701333-16.170667-34.816-28.586667-55.893334-36.394666-17.152-6.698667-42.965333-14.592-90.410666-16.768-51.285333-2.304-66.688-2.816-196.608-2.816s-145.322667 0.512-196.650667 2.816c-47.445333 2.176-73.173333 10.112-90.325333 16.768a150.741333 150.741333 0 0 0-55.978667 36.394666A150.826667 150.826667 0 0 0 127.573333 102.4c-6.698667 17.152-14.634667 42.88-16.768 90.325333-2.346667 51.328-2.773333 66.730667-2.773333 196.693334 0 129.92 0.426667 145.237333 2.773333 196.522666 2.176 47.445333 10.069333 73.216 16.768 90.368 7.808 21.12 20.224 40.277333 36.394667 55.978667 17.066667 17.024 33.28 27.562667 55.978667 36.394667 17.152 6.698667 42.88 14.592 90.325333 16.768 44.928 2.048 62.293333 2.645333 153.002667 2.773333v-0.128z m303.402666-80.810666a58.410667 58.410667 0 0 1 0-116.821334 58.453333 58.453333 0 0 1 0 116.821334z m-259.797333-68.266667a249.898667 249.898667 0 1 1 0-499.712 249.898667 249.898667 0 0 1 0 499.754667z m0-87.637333a162.218667 162.218667 0 0 0 0-324.437334 162.218667 162.218667 0 0 0 0 324.437334z"  horiz-adv-x="1024" />

    
    <glyph glyph-name="yuezhifu" unicode="&#59157;" d="M721.92 304.128h-36.352v17.92h36.352c9.728 0 17.92 8.192 17.92 17.92s-8.192 17.92-17.92 17.92h-36.352v1.024l42.496 43.52c7.168 7.68 3.584 14.336-3.584 21.504-7.168 7.168-18.432 8.704-24.576 2.56l-36.864-38.912-39.424 39.424c-5.12 5.12-14.848 3.584-22.016-3.584s-8.704-16.896-3.584-22.016l40.448-40.448-1.536-3.072H604.16c-9.728 0-17.92-8.192-17.92-17.92s8.192-17.92 17.92-17.92h35.84v-17.92h-35.84c-9.728 0-17.92-8.192-17.92-17.92s8.192-17.92 17.92-17.92h35.84v-17.92h0.512c-0.512-1.536-0.512-3.072-0.512-4.608 0-12.288 10.24-22.528 22.528-22.528 12.288 0 22.528 10.24 22.528 22.528 0 1.536 0 3.072-0.512 4.608v17.92h36.352c9.728 0 17.92 8.192 17.92 17.92 1.024 9.728-7.168 17.92-16.896 17.92zM663.04 802.304c-233.472 0-421.888-188.416-421.888-421.888 0-233.472 188.416-421.888 421.888-421.888s421.888 188.416 421.888 421.888c-0.512 233.984-188.416 421.888-421.888 421.888z m-86.528-192l0.512 1.024s44.544 8.704 81.408 9.216c38.4 0 81.408-9.216 81.408-9.216l0.512-1.024c5.12-2.048 8.704-6.656 8.704-12.8 0-1.024-0.512-2.048-0.512-3.072l0.512-1.536-3.584-4.608v-0.512l-32.256-39.936H604.16l-32.256 39.936-0.512 0.512-3.584 4.096 0.512 1.024c-0.512 1.024-0.512 2.048-0.512 3.584 0.512 6.144 4.096 11.264 8.704 13.312z m86.528-468.48c-149.504 0-211.968 53.248-211.968 163.328 0 91.136 71.168 185.856 157.184 216.064h109.568c86.016-29.696 157.184-124.928 157.184-216.064 0-110.08-62.464-163.328-211.968-163.328z"  horiz-adv-x="1325" />

    
    <glyph glyph-name="tongzhi" unicode="&#59159;" d="M435.678 85.333a76.8 76.8 0 0 1 152.644 0H435.678z m204.049 0a128 128 0 0 0-255.454 0h-247.74a25.6 25.6 0 0 0-20.48 40.96L213.333 256V452.267a298.803 298.803 0 0 0 205.005 283.682 93.867 93.867 0 1 0 187.29 0 298.803 298.803 0 0 0 205.039-283.682V256l97.28-129.707a25.6 25.6 0 0 0-20.48-40.96h-247.74z m-170.052 662.63a301.227 301.227 0 0 0 84.582 0 42.667 42.667 0 0 1-84.582 0z m294.912-515.856a25.6 25.6 0 0 0-5.12 15.36v204.8a247.467 247.467 0 0 1-494.934 0v-204.8a25.6 25.6 0 0 0-5.12-15.36l-71.68-95.574h648.534l-71.68 95.574z"  horiz-adv-x="1024" />

    
    <glyph glyph-name="tuichu1" unicode="&#59160;" d="M1015.972 402.648l-211.428 211.62a26.548 26.548 0 0 1-37.552 0l-42.733-42.734a26.612 26.612 0 0 1 0-37.616l93.271-93.335H392.308a26.548 26.548 0 0 1-26.548-26.548v-60.518c0-14.713 11.899-26.548 26.548-26.548h425.03l-93.335-93.4a26.612 26.612 0 0 1 0-37.55l42.798-42.734a26.548 26.548 0 0 1 37.551 0l168.886 169.014 42.797 42.797a26.612 26.612 0 0 1 0 37.552zM651.65 895.552H79.869C35.856 895.552 0.224 859.856 0.224 815.843V-48.29c0-44.013 35.632-79.709 79.645-79.709h571.782c44.013 0 79.645 35.696 79.645 79.71V63.851a26.548 26.548 0 0 1-26.548 26.548h-57.575a26.548 26.548 0 0 1-26.485-26.548v-42.67c0-39.342 0-39.342-39.79-39.342H149.535c-39.791 0-39.791 0-39.791 39.855V746.753c0 39.983-0.064 39.855 39.79 39.855h431.364c39.79 0 39.79-0.32 39.79-39.279v-43.949c0-14.713 11.9-26.548 26.549-26.548h57.575c14.585 0 26.484 11.899 26.484 26.548V815.843c0 44.013-35.632 79.71-79.645 79.71z"  horiz-adv-x="1024" />

    
    <glyph glyph-name="e" unicode="&#59156;" d="M0 896v-1024h1024V896h-208.776699v-815.223301h-198.834951V896H407.61165v-815.223301H208.776699V896H0z"  horiz-adv-x="1024" />

    
    <glyph glyph-name="qrcode02" unicode="&#59155;" d="M47.5175574 889.54519459h381.85816195c19.732688 0 35.72941866-15.99673067 35.72941864-35.72941866v-381.85816195c0-19.732688-15.99673067-35.72941866-35.72941864-35.72941864H47.5175574c-19.732688 0-35.72941866 15.99673067-35.72941866 35.72941864V853.81577593c0 19.732688 15.99673067 35.72941866 35.72941866 35.72941866z m44.66177331-71.45883731a8.93235466 8.93235466 0 0 1-8.93235466-8.93235466v-292.53461531a8.93235466 8.93235466 0 0 1 8.93235466-8.93235467h292.53461531a8.93235466 8.93235466 0 0 1 8.93235467 8.93235467V809.15400262a8.93235466 8.93235466 0 0 1-8.93235467 8.93235466H92.17933071z m502.44494994 71.45883731h381.85816195c19.732688 0 35.72941866-15.99673067 35.72941866-35.72941866v-381.85816195c0-19.732688-15.99673067-35.72941866-35.72941866-35.72941864H594.62428065c-19.732688 0-35.72941866 15.99673067-35.72941864 35.72941864V853.81577593c0 19.732688 15.99673067 35.72941866 35.72941864 35.72941866z m44.66177333-71.45883731a8.93235466 8.93235466 0 0 1-8.93235467-8.93235466v-292.53461531a8.93235466 8.93235466 0 0 1 8.93235467-8.93235467h292.53461531a8.93235466 8.93235466 0 0 1 8.93235466 8.93235467V809.15400262a8.93235466 8.93235466 0 0 1-8.93235466 8.93235466H639.28605398zM47.5175574 342.43847131999996h381.85816195c19.732688 0 35.72941866-15.99673067 35.72941864-35.72941864v-381.85816195c0-19.732688-15.99673067-35.72941866-35.72941864-35.72941866H47.5175574c-19.732688 0-35.72941866 15.99673067-35.72941866 35.72941866V306.70905268c0 19.732688 15.99673067 35.72941866 35.72941866 35.72941864z m44.66177331-71.4588373a8.93235466 8.93235466 0 0 1-8.93235466-8.93235467v-292.53461531a8.93235466 8.93235466 0 0 1 8.93235466-8.93235466h292.53461531a8.93235466 8.93235466 0 0 1 8.93235467 8.93235466V262.04727935000005a8.93235466 8.93235466 0 0 1-8.93235467 8.93235467H92.17933071z m716.8214619-262.3879183v-119.47024365h-107.18825596V8.591715720000025h107.18825596z m71.45883734 0h131.75223131v-83.74082499c0-19.732688-15.99673067-35.72941866-35.72941866-35.72941866h-96.02281265V8.591715720000025z m-178.6470933 71.45883732v73.691926h-71.45883734v-264.62100697h-35.72941866c-19.732688 0-35.72941866 15.99673067-35.72941864 35.72941866V306.70905268c0 19.732688 15.99673067 35.72941866 35.72941864 35.72941864h274.66990596v-193.16216962h71.45883734V342.43847131999996h35.72941865c19.732688 0 35.72941866-15.99673067 35.72941866-35.72941864v-226.65849964H701.81253665zM238.44663838 591.4278576199999c-39.46537601 0-71.45883732 31.99346132-71.45883732 71.45883733 0 39.46537601 31.99346132 71.45883732 71.45883732 71.45883732 39.46537601 0 71.45883732-31.99346132 71.45883733-71.45883732 0-39.46537601-31.99346132-71.45883732-71.45883733-71.45883733z m547.10672324 0c-39.46537601 0-71.45883732 31.99346132-71.45883733 71.45883733 0 39.46537601 31.99346132 71.45883732 71.45883733 71.45883732 39.46537601 0 71.45883732-31.99346132 71.45883732-71.45883732 0-39.46537601-31.99346132-71.45883732-71.45883732-71.45883733zM238.44663838 44.32113439c-39.46537601 0-71.45883732 31.99346132-71.45883732 71.45883732 0 39.46537601 31.99346132 71.45883732 71.45883732 71.45883733 39.46537601 0 71.45883732-31.99346132 71.45883733-71.45883733 0-39.46537601-31.99346132-71.45883732-71.45883733-71.45883732z"  horiz-adv-x="1024" />

    
    <glyph glyph-name="yuanquan" unicode="&#59153;" d="M510.757-64c-60.5 0-119.201 11.855-174.474 35.233-53.377 22.577-101.31 54.893-142.466 96.05-41.156 41.154-73.471 89.087-96.048 142.464C74.39 265.02 62.537 323.72 62.537 384.22c0 60.5 11.853 119.2 35.232 174.474 22.576 53.376 54.892 101.31 96.048 142.465 41.157 41.157 89.09 73.473 142.466 96.049 55.272 23.378 113.973 35.231 174.474 35.231 60.499 0 119.2-11.853 174.472-35.231 53.377-22.577 101.31-54.893 142.466-96.05 41.157-41.155 73.472-89.088 96.049-142.465 23.378-55.27 35.232-113.972 35.232-174.474 0-60.502-11.854-119.204-35.233-174.473-22.578-53.378-54.893-101.31-96.048-142.464-41.156-41.158-89.089-73.474-142.465-96.05-55.273-23.377-113.974-35.231-174.473-35.231z m0 865.74c-56.37 0-111.047-11.037-162.515-32.806-49.717-21.029-94.369-51.136-132.716-89.482-38.348-38.347-68.453-83-89.482-132.717-21.77-51.467-32.806-106.145-32.806-162.514 0-56.369 11.037-111.047 32.806-162.513 21.03-49.72 51.135-94.373 89.482-132.717 38.347-38.348 82.999-68.454 132.716-89.482 51.469-21.77 106.146-32.808 162.515-32.808s111.046 11.037 162.514 32.808c49.717 21.029 94.37 51.135 132.716 89.482 38.347 38.345 68.453 82.996 89.48 132.716 21.77 51.465 32.809 106.143 32.809 162.514 0 56.37-11.038 111.048-32.808 162.514-21.03 49.719-51.135 94.372-89.481 132.718-38.348 38.347-83 68.453-132.717 89.482-51.466 21.768-106.144 32.805-162.513 32.805z"  horiz-adv-x="1024" />

    
    <glyph glyph-name="zhifubao" unicode="&#59154;" d="M230.4 319.488c-12.288-9.728-25.088-24.064-28.672-41.984-5.12-24.576-1.024-55.296 22.528-79.872 28.672-29.184 72.704-37.376 91.648-38.912 51.2-3.584 105.984 22.016 147.456 50.688 16.384 11.264 44.032 34.304 70.144 69.632-59.392 30.72-133.632 64.512-212.48 61.44-40.448-1.536-69.632-9.728-90.624-20.992z m752.64-135.68C1009.152 245.248 1024 312.832 1024 384 1024 666.112 794.112 896 512 896S0 666.112 0 384s229.888-512 512-512c170.496 0 321.536 83.968 414.72 211.968-88.064 43.52-232.96 115.712-322.56 159.232-42.496-48.64-105.472-97.28-176.64-118.272-44.544-13.312-84.992-18.432-126.976-9.728-41.984 8.704-72.704 28.16-90.624 47.616-9.216 10.24-19.456 22.528-27.136 37.888 0.512-2.048 1.024-3.072 1.024-3.072s-4.608 7.68-7.68 19.456c-1.536 5.632-3.072 11.776-3.584 17.92-0.512 4.096-0.512 8.704 0 12.8-0.512 7.68 0 15.872 1.536 24.064 4.096 20.48 12.8 44.032 35.328 65.536 49.152 48.128 114.688 50.688 148.992 50.176 50.176-0.512 138.24-22.528 211.968-48.64 20.48 43.52 33.792 90.112 41.984 121.344h-307.2v33.28h157.696v66.56H272.384V593.92h190.464v66.56c0 9.216 2.048 16.384 16.384 16.384h74.752v-82.944h207.36v-33.28h-207.36v-66.56h165.888s-16.896-92.672-68.608-184.32c115.2-40.96 278.016-104.448 331.776-125.952z"  horiz-adv-x="1024" />

    
    <glyph glyph-name="miaosha" unicode="&#59152;" d="M763 85.6c79.7 71.1 125.2 172.9 125.1 279.6 0 207.4-168.4 375.7-376 375.7-207.5 0-376.1-168.3-376.1-375.7-0.1-102.7 41.9-200.9 116.4-271.9l-51.3-60.9c-13.3-15.9-11.2-39.6 4.7-52.9 16-13.3 39.6-11.2 53 4.7l52.9 63.1c60-37.8 129.5-57.7 200.4-57.6 69.4 0 134.5 18.7 190.3 51.6l43.3-55.8c7.5-9.6 18.6-14.6 29.7-14.6 14.3 0 27.4 8.1 33.8 21 6.4 12.8 4.8 28.2-4 39.5L763 85.6z m-326.3 54.2l37.6 187.8H361.5l225.6 263-37.6-187.8h112.8l-225.6-263zM135.9 586c-13.6 0-26.1 7.3-32.8 19.2-6.6 11.8-6.4 26.4 0.7 38 39.7 64.9 97.4 117.2 166 150.3 9 4.3 19.3 4.9 28.7 1.7 9.4-3.2 17.2-10.2 21.4-19.1 4.3-9 4.9-19.3 1.7-28.6a37.63 37.63 0 0 0-19.1-21.4c-55.7-26.9-102.5-69.2-134.7-121.9-6.7-11.4-18.8-18.2-31.9-18.2z m752.1 0c-13.1-0.1-25.3 6.7-32.1 17.9-32.2 52.7-79 95-134.6 121.9-9 4.3-15.9 12-19.1 21.4-3.3 9.4-2.7 19.7 1.7 28.6 4.3 9 12 15.9 21.4 19.1 9.4 3.2 19.8 2.7 28.7-1.7 68.6-33.1 126.3-85.3 166.2-150.2 7.1-11.6 7.4-26.1 0.7-38-6.7-11.7-19.3-19-32.9-19z m0 0"  horiz-adv-x="1024" />

    
    <glyph glyph-name="mianban" unicode="&#59151;" d="M512.037075 290.22526300000004h-0.071284a51.538583 51.538583 0 0 1-51.253446-51.289087v-315.647088a51.32473 51.32473 0 0 1 102.578176 0v315.68273a51.538583 51.538583 0 0 1-51.253446 51.253445zM945.160767 636.132557A489.866032 489.866032 0 0 1 512.072717 895.999644h-0.142568C330.547128 895.999644 164.704095 796.629264 79.127236 636.631547s-76.131683-353.107012 24.628742-504.087259a32.077956 32.077956 0 0 1 4.704767-5.667106 54.033535 54.033535 0 0 1 74.563427-6.772013A53.997893 53.997893 0 0 1 193.502971 193.84882600000003C88.109064 352.70599300000003 116.801014 567.200593 260.260762 692.76797c143.459748 125.567377 359.914668 125.567377 503.410058 0.071285 143.49539-125.496093 172.258624-339.990693 67.221139-498.420154a54.461241 54.461241 0 0 1 9.088754-73.458519c21.741726-18.177508 54.176104-16.466684 72.959529 3.100869 2.566236 2.209815 4.811693 4.776051 6.665087 7.591783a489.937316 489.937316 0 0 1 25.555438 504.479323zM512.001433 519.154944a89.568782 89.568782 0 0 1-89.461855-89.461856c0-31.864103 17.143885-61.518391 44.730927-77.486085a89.604424 89.604424 0 0 1 89.461856 0 89.818277 89.818277 0 0 1 44.730927 77.486085 89.568782 89.568782 0 0 1-89.461855 89.461856z"  horiz-adv-x="1024" />

    
    <glyph glyph-name="shebei1" unicode="&#59149;" d="M887.227625 896H136.707971A66.38249 66.38249 0 0 1 70.454755 829.746785v-278.586691a66.38249 66.38249 0 0 1 66.253216-66.253215h174.666098v-91.348641c0-23.156307 19.197273-45.666241 45.666241-45.66624h276.017358v-64.863514H136.707971a66.38249 66.38249 0 0 1-66.253216-66.253215v-278.522054a66.38249 66.38249 0 0 1 66.253216-66.253215h750.519654a66.38249 66.38249 0 0 1 66.253216 66.253215V216.904543a66.38249 66.38249 0 0 1-66.253216 66.253216h-178.722088v91.930376c0 23.172466-19.181114 45.6824-45.66624 45.682399h-276.0012v64.200982h500.389528a66.38249 66.38249 0 0 1 66.253216 66.253215v277.940318C954.078735 865.55584 923.666894 896 887.227625 896zM671.452215 109.041077a30.46032 30.46032 0 0 0 0-60.90448H344.468358a30.46032 30.46032 0 0 0 0 60.90448z m0 542.743108H344.468358a30.44416 30.44416 0 0 0 0 60.88832h326.983857a30.363364 30.363364 0 0 0 30.44416-30.44416c0.662532-16.547145-13.234484-30.44416-30.44416-30.44416z"  horiz-adv-x="1024" />

    
    <glyph glyph-name="shebei2" unicode="&#59150;" d="M735.873678 895.950095h-250.398167c-30.666602 0-56.217944-20.436084-56.217945-51.15259v-812.477801h-71.538769V844.84741c0 25.551343-20.436084 51.15259-51.15259 51.15259H56.205468C25.551343 895.950095 0 875.514011 0 844.84741v-919.848336c0-30.666602 25.551343-51.15259 56.205468-51.15259h250.410644c30.666602 0 51.15259 20.436084 51.15259 51.15259v35.769385h71.538769v-35.769385c0-30.666602 25.551343-51.15259 56.217944-51.15259h250.398168c30.666602 0 56.217944 20.436084 56.217944 51.15259V844.84741c-5.115259 30.666602-25.551343 51.15259-56.217944 51.15259zM163.526098-39.231541H91.987329v71.551245h71.538769z m107.295677 776.758321H91.987329V809.078025h178.859398z m321.887031-776.758321h-71.463911v71.551245h71.551245z m107.295678 776.758321H521.244895V809.078025h178.859399zM970.951021-126.103611c-30.666602 0-51.15259 20.436084-51.15259 51.15259V844.84741c0 30.666602 25.551343 51.15259 51.15259 51.15259s51.15259-20.436084 51.15259-51.15259v-919.848336c0-30.666602-25.551343-51.15259-51.15259-51.15259z"  horiz-adv-x="1024" />

    
    <glyph glyph-name="kongzhitai" unicode="&#59148;" d="M1014.53040957 486.81660097c0 79.96751293-68.5448097 148.51232262-148.51232263 148.51232261-79.96874013 0-148.5135498-68.5448097-148.51354981-148.51232261 0-62.83223089 39.98437004-114.24053138 91.3926705-137.08961942v-376.99338537c0-28.55921244 22.84786082-57.11965208 57.12087931-57.1196521 28.55921244 0 57.11965208 22.84786082 57.11965208 57.12087929v376.99338538c51.40830049 22.84786082 91.39267054 74.2561613 91.39267055 137.08839222z m-148.51232263 51.40707327c28.55921244 0 57.11965208-22.84663365 57.11965208-57.11965209 0-28.55921244-22.84786082-57.11965208-57.11965208-57.11965211s-57.12087929 22.84786082-57.12087931 57.11965211 22.84786082 57.12087929 57.12087931 57.12087927zM791.76069843 783.84124621a74.2573885 74.2573885 0 1 1 148.51354982 0 74.2573885 74.2573885 0 1 1-148.51232262 0zM311.95193928 486.81660097c0 79.96751293-68.5448097 148.51232262-148.51232262 148.51232261-85.68131895 0-148.5135498-68.5448097-148.51354984-148.51232261 0-62.83223089 39.98437004-114.24053138 91.39267057-137.08961942v-376.99338537c0-28.55921244 22.84786082-57.11965208 57.12087927-57.1196521S220.55926875-61.53819507000003 220.55926875-27.26517663000004v376.99338538c51.40707329 22.84786082 91.39267054 74.2561613 91.39267053 137.08839222z m-148.51232262 51.40707327c28.55921244 0 57.11965208-22.84663365 57.11965209-57.11965209 0-28.55921244-22.84786082-57.11965208-57.11965209-57.11965211-28.56043963 0-57.12087929 22.84786082-57.12087927 57.11965211s28.56043963 57.12087929 57.12087927 57.12087927zM89.18222815 783.84124621a74.2573885 74.2573885 0 1 1 148.51354981 0 74.2573885 74.2573885 0 1 1-148.51354981 0zM568.99221448 418.27179125V800.97775543c0 28.56043963-22.84786082 57.11965208-57.11965207 57.11965209-28.56043963 0-57.12087929-22.84786082-57.12087931-57.11965209v-376.99338539c-57.11965208-22.84786082-91.39144333-74.2573885-91.39144331-137.08961939 0-79.96751293 68.54358249-148.51109542 148.51232262-148.51109542 79.96751293 0 148.51232262 68.54358249 148.51232261 148.51232262 0 57.11965208-34.27179125 108.52795258-91.39267054 131.3758134z m-57.11965207-188.49669267c-28.56043963 0-57.12087929 22.84786082-57.12087931 57.12087927 0 28.55921244 22.84908804 57.11965208 57.12087931 57.11965211 28.56043963 0 57.11965208-22.84786082 57.11965207-57.11965211s-22.84786082-57.12087929-57.11965207-57.12087927zM437.61517388-15.841246210000008a74.2573885 74.2573885 0 1 1 148.51354985 0 74.2573885 74.2573885 0 1 1-148.51232263 0z"  horiz-adv-x="1024" />

    
    <glyph glyph-name="xuexijiaoliu" unicode="&#59141;" d="M752.941176-148.030118l-542.117647 0c-16.624941 0-30.117647 13.492706-30.117647 30.117647s13.492706 30.117647 30.117647 30.117647l542.117647 0c16.624941 0 30.117647-13.492706 30.117647-30.117647S769.566118-148.030118 752.941176-148.030118zM752.941176-27.559529l-542.117647 0c-83.004235 0-150.588235 63.066353-150.588235 140.528941L60.235294 554.735059c0 77.522824 67.584 140.528941 150.588235 140.528941l542.117647 0c83.064471 0 150.588235-63.006118 150.588235-140.528941l0-441.765647C903.529412 35.506824 836.005647-27.559529 752.941176-27.559529zM210.823529 635.028706C161.008941 635.028706 120.470588 599.008 120.470588 554.735059l0-441.765647c0-44.272941 40.538353-80.293647 90.352941-80.293647l542.117647 0c49.814588 0 90.352941 36.020706 90.352941 80.293647L843.294118 554.735059c0 44.272941-40.538353 80.293647-90.352941 80.293647L210.823529 635.028706zM572.235294 213.381647c-7.710118 0-15.420235 2.951529-21.323294 8.794353l-180.705882 180.705882c-11.745882 11.745882-11.745882 30.840471 0 42.586353s30.840471 11.745882 42.586353 0l180.705882-180.705882c11.745882-11.745882 11.745882-30.840471 0-42.586353C587.655529 216.333176 579.945412 213.381647 572.235294 213.381647zM391.529412 213.321412c-16.624941 0-30.117647 13.492706-30.117647 30.117647l0 210.823529 210.823529 0c16.624941 0 30.117647-13.492706 30.117647-30.117647s-13.492706-30.117647-30.117647-30.117647L421.647059 394.027294l0-150.588235C421.647059 226.753882 408.154353 213.321412 391.529412 213.321412z"  horiz-adv-x="1024" />

    
    <glyph glyph-name="dongtai" unicode="&#59142;" d="M959.878095 325.802667L660.772571 628.784762l62.732191 141.848381c1.097143 2.462476 1.828571 5.095619 2.145524 7.801905 2.194286 18.602667-3.193905 56.734476-37.229715 81.67619-34.986667 25.697524-79.725714 1.609143-109.007238-33.962667l-304.274285-300.397714-150.747429 64.121905a26.86781 26.86781 0 0 1-7.411809 1.999238c-18.578286 2.145524-56.783238-3.169524-81.749334-37.229714-25.648762-34.986667-1.560381-79.725714 33.987048-108.982857l207.530666-210.236953a27.062857 27.062857 0 0 1 38.521905 38.034286L106.666667 484.693333c-0.731429 0.731429-1.462857 1.414095-2.267429 2.048-14.701714 11.873524-27.209143 30.403048-25.6 35.937524 9.679238 13.165714 23.088762 15.238095 28.940191 15.506286L270.628571 468.845714c10.069333-4.315429 21.796571-2.072381 29.598477 5.656381L618.422857 788.699429c0.731429 0.731429 1.414095 1.462857 2.048 2.243047 11.849143 14.701714 30.47619 27.306667 35.913143 25.6 13.06819-9.581714 15.238095-22.820571 15.506286-28.793905l-68.071619-153.916952a27.062857 27.062857 0 0 1 5.485714-29.939809l313.10019-317.147429c0.731429-0.731429 1.462857-1.414095 2.267429-2.048 14.677333-11.849143 27.184762-30.378667 25.6-35.913143-9.654857-13.165714-23.04-15.262476-28.91581-15.506286l-153.526857 65.828572a27.014095 27.014095 0 0 1-29.671619-5.607619L419.937524-20.699429c-0.731429-0.731429-1.414095-1.462857-2.048-2.267428-11.873524-14.726095-30.354286-27.233524-35.937524-25.6a37.61981 37.61981 0 0 0-15.481905 28.769524l130.80381 294.448762a27.062857 27.062857 0 0 1-49.444572 21.942857l-132.949333-299.227429c-1.097143-2.486857-1.828571-5.12-2.145524-7.826286-2.194286-18.602667 3.193905-56.758857 37.229714-81.724952 10.166857-7.43619 21.138286-10.727619 32.304762-10.727619 27.355429 0 55.929905 19.480381 76.702477 44.739048l304.274285 300.373333 141.409524-60.65981c2.389333-1.024 4.900571-1.706667 7.484952-1.999238 18.602667-2.194286 56.807619 3.169524 81.749334 37.229715 25.648762 34.962286 1.560381 79.725714-33.987048 108.982857zM474.599619 401.383619a54.125714 54.125714 0 1 1 108.227048 0 54.125714 54.125714 0 0 1-108.227048 0z"  horiz-adv-x="1024" />

    
    <glyph glyph-name="xitongtongzhi" unicode="&#59143;" d="M330.24 514.56L167.424 514.56c-16.384 0-29.184 13.312-29.184 29.184s13.312 29.184 29.184 29.184l162.816 0c16.384 0 29.184-13.312 29.184-29.184S346.624 514.56 330.24 514.56zM167.424 333.312c-16.384 0-29.184 13.312-29.184 29.184L138.24 543.744c0 16.384 13.312 29.184 29.184 29.184s29.184-13.312 29.184-29.184l0-181.248C196.608 346.11199999999997 183.808 333.312 167.424 333.312zM628.736 294.4c-16.384 0-29.184 13.312-29.184 29.184L599.552 685.568c0 1.024 0 2.56 0 3.072 0 2.048-1.536 3.072-3.072 3.072-0.512 0-1.024 0-1.536-0.512-0.512-0.512-1.024-0.512-1.536-1.024L347.136 519.6800000000001c-13.312-9.216-31.744-6.144-40.96 7.168-9.216 13.312-6.144 31.744 7.168 40.96l247.808 172.544c1.024 0.512 1.536 1.024 2.56 1.536 9.728 6.144 20.992 9.216 32.256 9.216 33.792 0 61.44-27.648 61.44-61.44 0-0.512 0-1.024 0-2.048 0-0.512 0-0.512 0-1.024l0-362.496C658.432 307.712 645.12 294.4 628.736 294.4zM330.24 195.072L167.424 195.072c-16.384 0-29.184 13.312-29.184 29.184s13.312 29.184 29.184 29.184l162.816 0c16.384 0 29.184-13.312 29.184-29.184S346.624 195.072 330.24 195.072zM167.424 195.072c-16.384 0-29.184 13.312-29.184 29.184L138.24 405.504c0 16.384 13.312 29.184 29.184 29.184s29.184-13.312 29.184-29.184l0-181.248C196.608 208.38400000000001 183.808 195.072 167.424 195.072zM596.48 16.895999999999958c-11.776 0-23.04 3.072-32.768 9.216-1.024 0.512-1.536 1.024-2.56 1.536l-247.808 172.544c-13.312 9.216-16.384 27.648-7.168 40.96 9.216 13.312 27.648 16.384 40.96 7.168l246.272-171.52c0.512-0.512 1.024-0.512 1.536-1.024 0.512-0.512 1.536-0.512 1.536-0.512 1.536 0 3.072 1.536 3.072 3.072 0 1.536 0 3.072 0 4.096l0 361.472c0 16.384 13.312 29.184 29.184 29.184s29.184-13.312 29.184-29.184l0-362.496c0-0.512 0-0.512 0-1.024 0-0.512 0-1.024 0-1.536C658.432 44.54399999999998 630.784 16.895999999999958 596.48 16.895999999999958zM684.032 245.76c-13.824 0-26.112 9.728-28.672 24.064-3.072 15.872 7.68 31.232 23.552 33.792 38.912 6.656 67.072 40.448 67.072 79.872 0 39.424-28.16 73.216-67.072 79.872-15.872 3.072-26.624 17.92-23.552 33.792 3.072 15.872 17.92 26.624 33.792 23.552 67.072-11.776 115.712-69.632 115.712-137.728 0-68.096-48.64-125.952-115.2-137.728C687.616 245.76 686.08 245.76 684.032 245.76zM931.328 354.81600000000003l-88.064 0c-16.384 0-29.184 13.312-29.184 29.184s13.312 29.184 29.184 29.184l88.064 0c16.384 0 29.184-13.312 29.184-29.184S947.2 354.81600000000003 931.328 354.81600000000003zM815.616 634.3679999999999c-7.68 0-14.848 3.072-20.48 8.704-11.264 11.264-11.264 30.208 0 41.472l60.416 60.416c11.264 11.264 30.208 11.264 41.472 0 11.264-11.264 11.264-30.208 0-41.472l-60.416-60.416C830.976 637.44 823.296 634.3679999999999 815.616 634.3679999999999zM876.032 14.336000000000013c-7.68 0-14.848 3.072-20.48 8.704l-60.416 60.416c-11.264 11.264-11.264 30.208 0 41.472s30.208 11.264 41.472 0l60.416-60.416c11.264-11.264 11.264-30.208 0-41.472C891.392 17.408000000000015 883.712 14.336000000000013 876.032 14.336000000000013z"  horiz-adv-x="1024" />

    
    <glyph glyph-name="jianbao" unicode="&#59146;" d="M1070.965622-128H146.127568C87.676541-128 0-87.04 0 25.6V691.2h194.836757V896H1217.72973l-3.072-903.915243c0-55.351351-7.444757-76.827676-30.028108-93.654487-11.319351-8.883892-32.131459-26.43027-113.664-26.43027zM975.567568 494.702703c26.624 0 48.432432 24.908108 48.432432 55.351351s-21.808432 55.351351-48.432432 55.351351h-484.324325c-26.624 0-48.432432-24.908108-48.432432-55.351351s21.808432-55.351351 48.432432-55.351351h484.324325z m-195.002811-193.72973c27.343568 0 49.705514 24.908108 49.705513 55.351351s-22.361946 55.351351-49.705513 55.351352H464.840649c-27.343568 0-49.705514-24.908108-49.705514-55.351352s22.361946-55.351351 49.705514-55.351351h315.724108z m195.002811-193.72973c26.624 0 48.432432 24.908108 48.432432 55.351352s-21.808432 55.351351-48.432432 55.351351h-484.324325c-26.624 0-48.432432-24.908108-48.432432-55.351351s21.808432-55.351351 48.432432-55.351352h484.324325zM97.418378 594.335135v-578.421621c0-42.067027 26.790054-52.583784 48.70919-52.583784 43.83827 0 48.709189 36.808649 48.709189 52.583784V594.335135H97.418378z"  horiz-adv-x="1217" />

    
    <glyph glyph-name="down-double-arrow" unicode="&#59139;" d="M474.3655026 334.12756876000003c5.23287959-5.35649047 11.49585314-9.47686821 18.37688306-12.15511347 2.34861557-0.94768701 4.94445289-0.94768701 7.41667932-1.60694635 3.95556193-0.90648306 7.62269815-2.14259579 11.619465-2.14259679 3.99676588 0 7.62269815 1.2361137 11.49585312 2.14259679 2.47222646 0.65926032 5.06806474 0.65926032 7.41667935 1.64815032a52.65842365 52.65842365 0 0 1 18.54169884 12.1139095L990.69000251 788.60520351A54.1417601 54.1417601 0 0 1 991.76130041 863.5548701 50.51582784 50.51582784 0 0 1 918.95423058 862.48357122L511.8609369 443.48238684 104.76764324 862.56597914a50.51582784 50.51582784 0 0 1-72.80706985 1.0300949c-19.7778116-21.01392529-19.36577401-54.51259372 1.03009493-74.90846263L474.3655026 334.12756876000003zM918.95423058 434.00551863L511.8609369 14.963130289999981l-407.1757006 419.04238834c-19.7778116 21.01392529-52.32879397 21.46716683-72.72466292 1.11250186-9.47686821-10.05372062-14.75095175-23.60976264-14.54493197-37.70145309 0.20601879-14.00928354 5.809732-27.44171367 15.65743385-37.2070086l441.5396501-454.56004264c5.23287959-5.31528651 11.45464918-9.43566426 18.33567908-12.1139095 2.26620765-1.11250185 4.82084202-1.11250185 7.41667933-1.64815132 3.83195105-0.94768701 7.49908725-2.18379975 11.49585313-2.18379973 3.99676588 0 7.5814942 1.2361137 11.45465016 2.14259677 2.47222646 0.65926032 5.06806474 0.65926032 7.41667935 1.64815034a52.04036728 52.04036728 0 0 1 18.54169786 12.03150256L990.77241041 360.04474299000003a54.22416703 54.22416703 0 0 1 0.94768701 74.9496666 50.63943873 50.63943873 0 0 1-72.80706982-0.98889096z"  horiz-adv-x="1024" />

    
    </font>
</defs>
</svg>
